<?xml version="1.0" encoding="UTF-8"?> <svg xmlns="http://www.w3.org/2000/svg" xmlns:xlink="http://www.w3.org/1999/xlink" id="Capa_1" data-name="Capa 1" width="13.583cm" height="2.6593cm" viewBox="0 0 385.0305 75.3829"><defs><style>.cls-1{fill:#fff;}.cls-2{fill:none;stroke:#5ca447;stroke-miterlimit:10;}.cls-3{fill:url(#radial-gradient);}.cls-4{fill:#5ca447;}.cls-5{fill:url(#linear-gradient);}.cls-6{fill:url(#radial-gradient-2);}.cls-7{fill:#054d9c;}.cls-8{fill:#2d2e80;}</style><radialGradient id="radial-gradient" cx="31.2758" cy="202.5725" r="19.6635" gradientTransform="translate(28.0261 -191.8653) scale(1.0707 1.1465)" gradientUnits="userSpaceOnUse"><stop offset="0" stop-color="#fff"></stop><stop offset="0.1347" stop-color="#fbfdfb"></stop><stop offset="0.2818" stop-color="#f1f6ed"></stop><stop offset="0.4347" stop-color="#dfebd8"></stop><stop offset="0.5917" stop-color="#c7dbb9"></stop><stop offset="0.7518" stop-color="#a7c792"></stop><stop offset="0.9123" stop-color="#81ae62"></stop><stop offset="1" stop-color="#699f45"></stop></radialGradient><linearGradient id="linear-gradient" x1="60.6399" y1="28.3857" x2="60.6399" y2="12.1766" gradientUnits="userSpaceOnUse"><stop offset="0" stop-color="#bf292e"></stop><stop offset="0.5169" stop-color="#cc772d"></stop><stop offset="1" stop-color="#f1d21d"></stop></linearGradient><radialGradient id="radial-gradient-2" cx="30.6024" cy="176.5682" r="1.4873" gradientTransform="translate(28.0261 -191.8653) scale(1.0707 1.1465)" xlink:href="#linear-gradient"></radialGradient></defs><path class="cls-1" d="M125.451,7.4237h4.0451l6.2158,10.85-.1589-10.85h3.2605V22.5311H135.113l-6.5338-11.4277.1452,11.4277H125.451Z" transform="translate(-25.2345 -2)"></path><path class="cls-1" d="M205.7606,10.3025a3.115,3.115,0,0,0-2.3565.8314,3.94,3.94,0,0,0-.8729,2.5576l7.94.0113v2.5527H202.507a4.0807,4.0807,0,0,0,.7658,2.7415,3.1886,3.1886,0,0,0,2.4878.8314h4.7109v2.5527H205.617a8.6509,8.6509,0,0,1-2.524-.3021,4.8871,4.8871,0,0,1-1.7219-.9944,5.3791,5.3791,0,0,1-1.5783-2.3234,10.4539,10.4539,0,0,1-.5134-3.4391c0-2.5848.5134-4.4949,1.5541-5.7236A6.0738,6.0738,0,0,1,205.7,7.7564h4.7714v2.5461Z" transform="translate(-25.2345 -2)"></path><path class="cls-1" d="M212.9816,7.7564h6.2549a6.0686,6.0686,0,0,1,4.8664,1.8421q1.5792,1.8431,1.5783,5.7236a10.0884,10.0884,0,0,1-.5255,3.4391,5.5588,5.5588,0,0,1-1.5662,2.3234,4.95,4.95,0,0,1-1.7461.9944,8.5928,8.5928,0,0,1-2.524.3021h-6.3378Zm6.196,2.5461h-3.3243v9.5259h3.3243a3.01,3.01,0,0,0,2.6416-1.0333,6.9823,6.9823,0,0,0,.7173-3.73,7.0608,7.0608,0,0,0-.7173-3.7362A3.0084,3.0084,0,0,0,219.1776,10.3025Z" transform="translate(-25.2345 -2)"></path><path class="cls-1" d="M230.4649,7.7564v8.7443a4.37,4.37,0,0,0,.7052,2.8643,2.95,2.95,0,0,0,2.3806.809,2.9839,2.9839,0,0,0,2.3667-.804,4.519,4.519,0,0,0,.6931-2.8693V7.7564h2.87V16.59a13.3418,13.3418,0,0,1-.19,2.4687,3.66,3.66,0,0,1-.61,1.4676,5.0327,5.0327,0,0,1-2.0554,1.5257,8.7075,8.7075,0,0,1-3.0739.4795,8.86,8.86,0,0,1-3.11-.4795,5.1123,5.1123,0,0,1-2.0556-1.5257,3.4932,3.4932,0,0,1-.5981-1.4239,13.4144,13.4144,0,0,1-.18-2.5124V7.7564Z" transform="translate(-25.2345 -2)"></path><path class="cls-1" d="M247.8875,10.2525a2.8489,2.8489,0,0,0-2.5708,1.2107,7.7665,7.7665,0,0,0-.7778,3.993,5.6422,5.6422,0,0,0,.7536,3.3842,3.051,3.051,0,0,0,2.595.988h4.7248v2.5527H247.756a8.6128,8.6128,0,0,1-2.5343-.3021,4.856,4.856,0,0,1-1.7219-.9944,5.4563,5.4563,0,0,1-1.5785-2.3234,10.0911,10.0911,0,0,1-.5271-3.4391q0-3.8772,1.5783-5.7236a6.0317,6.0317,0,0,1,4.8563-1.8421h4.7835v2.4961Z" transform="translate(-25.2345 -2)"></path><path class="cls-1" d="M258.6145,7.7564h3.06l5.8243,14.6247h-3.1931l-1.267-3.4858h-5.92l-1.2308,3.4858h-3.0374Zm1.4227,2.9028-1.9966,5.6237h4.0661Z" transform="translate(-25.2345 -2)"></path><path class="cls-1" d="M269.6754,10.3188h-4.4017v-2.54h11.8147v2.54h-4.4361V22.3811h-2.9769Z" transform="translate(-25.2345 -2)"></path><path class="cls-1" d="M281.5018,22.3811h-3.0011V7.7564h3.0011Z" transform="translate(-25.2345 -2)"></path><path class="cls-1" d="M288.27,22.3811,282.3266,7.7564h3.2414L289.6809,18.65,293.89,7.7564H296.94L291.235,22.3811Z" transform="translate(-25.2345 -2)"></path><path class="cls-1" d="M327.2523,22.3811h-7.51V7.7564h7.0085a11.4448,11.4448,0,0,1,2.1643.1614,3.52,3.52,0,0,1,1.34.5085,3.396,3.396,0,0,1,1.1479,1.3063,4.2905,4.2905,0,0,1,.3941,1.8308,4.1053,4.1053,0,0,1-.4909,2.0732,3.8857,3.8857,0,0,1-1.5422,1.4289,3.4619,3.4619,0,0,1,1.5664,1.29,3.8906,3.8906,0,0,1,.5013,2.0311,3.7792,3.7792,0,0,1-1.1116,3.0111A5.1321,5.1321,0,0,1,327.2523,22.3811Zm-4.6381-11.9963v3.3744h4.1836a2.1088,2.1088,0,0,0,1.4349-.4085,1.63,1.63,0,0,0,.4545-1.2834,1.6084,1.6084,0,0,0-.4545-1.2788,2.1015,2.1015,0,0,0-1.4349-.4037Zm4.2439,9.4049a2.11,2.11,0,0,0,1.4351-.4133,1.7374,1.7374,0,0,0,.4425-1.2966,1.7674,1.7674,0,0,0-.4425-1.3175,2.11,2.11,0,0,0-1.4351-.4132h-4.2439V19.79Z" transform="translate(-25.2345 -2)"></path><path class="cls-1" d="M337.1185,22.3811h-3.0011V7.7564h3.0011Z" transform="translate(-25.2345 -2)"></path><path class="cls-1" d="M345.38,22.3811a8.87,8.87,0,0,1-2.8455-.3472,4.1776,4.1776,0,0,1-1.6735-1.19,4.3819,4.3819,0,0,1-.9457-1.7147,9.8182,9.8182,0,0,1-.2869-2.68V7.7564h2.8819v8.5927a12.113,12.113,0,0,0,.095,1.7985,1.9086,1.9086,0,0,0,.3718.8494,2.3152,2.3152,0,0,0,.9923.7313,5.0424,5.0424,0,0,0,1.651.218h3.3832v2.4348Z" transform="translate(-25.2345 -2)"></path><path class="cls-1" d="M353.5591,22.3811H350.558V7.7564h3.0011Z" transform="translate(-25.2345 -2)"></path><path class="cls-1" d="M356.3943,7.7564H360.03l5.584,10.5027-.1435-10.5027h2.9424V22.3811h-3.3261l-5.8709-11.0629.1313,11.0629h-2.9529Z" transform="translate(-25.2345 -2)"></path><path class="cls-1" d="M376.137,16.2829v-2.58H382.93v8.6783h-6.17a8.9671,8.9671,0,0,1-2.6192-.3021,5.1762,5.1762,0,0,1-1.71-.9944,5.4719,5.4719,0,0,1-1.58-2.3234,9.8429,9.8429,0,0,1-.5255-3.4391q0-3.87,1.5783-5.7187a6.035,6.035,0,0,1,4.8563-1.847h6.17v2.5122h-6.17a2.7434,2.7434,0,0,0-2.4653,1.1787,6.9782,6.9782,0,0,0-.7641,3.736,6.0356,6.0356,0,0,0,.7641,3.4664,2.81,2.81,0,0,0,2.4653,1.0786h3.24V16.2829Z" transform="translate(-25.2345 -2)"></path><path class="cls-1" d="M388.1192,7.7564v8.7443a4.5262,4.5262,0,0,0,.6934,2.8643,3.9139,3.9139,0,0,0,4.7593.005,4.5283,4.5283,0,0,0,.681-2.8693V7.7564h2.882V16.59a12.3784,12.3784,0,0,1-.19,2.4687,3.6655,3.6655,0,0,1-.612,1.4676,5.0333,5.0333,0,0,1-2.0558,1.5257,10.1249,10.1249,0,0,1-6.1579,0,4.9592,4.9592,0,0,1-2.0814-1.5257,3.3586,3.3586,0,0,1-.5982-1.4239,13.5916,13.5916,0,0,1-.178-2.5124V7.7564Z" transform="translate(-25.2345 -2)"></path><path class="cls-1" d="M405.53,10.3025a3.0858,3.0858,0,0,0-2.3444.8314,3.8762,3.8762,0,0,0-.8729,2.5576l7.9524.0113v2.5527h-7.9766a4.22,4.22,0,0,0,.7537,2.7415,3.224,3.224,0,0,0,2.4878.8314h4.7351v2.5527h-4.8563a8.5651,8.5651,0,0,1-2.5343-.3021,5.036,5.036,0,0,1-1.7338-.9944,5.3377,5.3377,0,0,1-1.5545-2.3234,9.7885,9.7885,0,0,1-.5376-3.4391c0-2.5848.5136-4.4949,1.5785-5.7236a6.0276,6.0276,0,0,1,4.8544-1.8421h4.7836v2.5461Z" transform="translate(-25.2345 -2)"></path><path class="cls-1" d="M142.5978,29.427h6.8044v7.6449h-3.1568V42.8a10.3356,10.3356,0,0,1-2.7868-3.45,10.052,10.052,0,0,1-.8608-4.3108Zm9.6984,0h6.8046v7.6449h-3.1576V42.8a10.3317,10.3317,0,0,1-2.7861-3.45,10.0519,10.0519,0,0,1-.8609-4.3108Z" transform="translate(-25.2345 -2)"></path><path class="cls-1" d="M182.5015,36.9265q-5.3625,0-7.712,3.63c-1.5552,2.4284-2.3565,6.4163-2.3565,11.9654,0,4.8147.7659,8.2037,2.2605,10.175,1.5065,1.9649,4.1017,2.9532,7.808,2.9532h14.1466v7.6384H182.071a25.8779,25.8779,0,0,1-7.5685-.8816,14.8353,14.8353,0,0,1-5.19-2.9707,16.2439,16.2439,0,0,1-4.7119-6.9911,30.0544,30.0544,0,0,1-1.5783-10.3073q0-11.6442,4.7117-17.1661,4.6989-5.536,14.6-5.5443h14.3142v7.4995Z" transform="translate(-25.2345 -2)"></path><path class="cls-1" d="M219.8467,37.0719c-3.12,0-5.4647.8379-7.0552,2.5009-1.5905,1.67-2.4515,4.2269-2.6312,7.6725l23.8209.0226v7.6384H210.1119q.0207,5.7373,2.2611,8.236,2.2407,2.5041,7.4737,2.5074h14.1345v7.6384H219.4283a25.839,25.839,0,0,1-7.57-.8816,14.8512,14.8512,0,0,1-5.19-2.9707,16.4818,16.4818,0,0,1-4.7111-6.9911,30.046,30.046,0,0,1-1.5662-10.3073c0-7.7628,1.5541-13.4848,4.699-17.1661q4.7013-5.536,14.5891-5.5443h14.3022v7.6449Z" transform="translate(-25.2345 -2)"></path><path class="cls-1" d="M257.7779,73.2881a26.2327,26.2327,0,0,1-8.5263-1.0318,12.1381,12.1381,0,0,1-4.9859-3.5632,12.9253,12.9253,0,0,1-2.8715-5.1375,29.4367,29.4367,0,0,1-.8368-8.052V29.427h8.6093V55.2017a30.9882,30.9882,0,0,0,.3233,5.4234,5.7233,5.7233,0,0,0,1.0995,2.5172,6.6645,6.6645,0,0,0,3.0012,2.2054,14.69,14.69,0,0,0,4.9392.6587h10.141v7.2817Z" transform="translate(-25.2345 -2)"></path><path class="cls-1" d="M282.3266,73.2881H273.323V29.427h9.0036Z" transform="translate(-25.2345 -2)"></path><path class="cls-1" d="M299.7977,37.1268h-13.25v-7.632h35.4435v7.632H308.7059V73.2881h-8.9082Z" transform="translate(-25.2345 -2)"></path><path class="cls-1" d="M343.0379,37.0719c-3.11,0-5.4664.8379-7.0431,2.5009-1.5905,1.67-2.4757,4.2269-2.6312,7.6725l23.8191.0226v7.6384h-23.88q.036,5.7373,2.2733,8.236,2.24,2.5041,7.4614,2.5074h14.1448v7.6384H342.63a25.77,25.77,0,0,1-7.5685-.8816,14.5918,14.5918,0,0,1-5.1777-2.9707,16.17,16.17,0,0,1-4.7232-6.9911,30.03,30.03,0,0,1-1.5783-10.3073q0-11.6442,4.7111-17.1661,4.6986-5.536,14.5891-5.5443h14.3v7.6449Z" transform="translate(-25.2345 -2)"></path><path class="cls-1" d="M365.8766,42.8V37.0719h-3.1445V29.427h6.7925v5.6122a9.7044,9.7044,0,0,1-.8852,4.3108A10.391,10.391,0,0,1,365.8766,42.8Zm9.6987,0V37.0719h-3.1447V29.427h6.7906v5.6122A9.8976,9.8976,0,0,1,378.35,39.35,10.16,10.16,0,0,1,375.5753,42.8Z" transform="translate(-25.2345 -2)"></path><path class="cls-1" d="M147.0943,7.6853h6.3568a6.141,6.141,0,0,1,4.946,1.889q1.6053,1.8917,1.6045,5.8706a10.42,10.42,0,0,1-.5343,3.5262,5.7115,5.7115,0,0,1-1.5913,2.3832A5.033,5.033,0,0,1,156.1,22.373a8.6543,8.6543,0,0,1-2.5645.31h-6.4415Zm6.2971,2.6124h-3.3788v9.7664h3.3788a3.0466,3.0466,0,0,0,2.6849-1.0591,7.221,7.221,0,0,0,.7286-3.8249,7.3079,7.3079,0,0,0-.7286-3.8314A3.0478,3.0478,0,0,0,153.3914,10.2977Z" transform="translate(-25.2345 -2)"></path><path class="cls-1" d="M114.3937,7.4237V16.41a4.2981,4.2981,0,0,0,.7675,2.9433,3.3268,3.3268,0,0,0,2.5913.8314,3.3687,3.3687,0,0,0,2.5777-.8266,4.4437,4.4437,0,0,0,.7538-2.9481V7.4237h3.1247v9.0788a13.021,13.021,0,0,1-.2065,2.5379,3.677,3.677,0,0,1-.6648,1.5082A5.4979,5.4979,0,0,1,121.1,22.1163a10.0109,10.0109,0,0,1-3.3472.4924,10.184,10.184,0,0,1-3.3849-.4924,5.58,5.58,0,0,1-2.2378-1.5677,3.4894,3.4894,0,0,1-.6509-1.4645,12.979,12.979,0,0,1-.1963-2.5816V7.4237Z" transform="translate(-25.2345 -2)"></path><path class="cls-1" d="M144.8988,22.6087h-3.5025V7.8306h3.5025Z" transform="translate(-25.2345 -2)"></path><path class="cls-1" d="M165.3546,7.6078h3.32l6.3188,14.9233h-3.4653l-1.3736-3.5567h-6.4233l-1.3355,3.5567h-3.295Zm1.5437,2.9611-2.167,5.74h4.412Z" transform="translate(-25.2345 -2)"></path><path class="cls-1" d="M300.51,7.3916h3.06l5.8242,14.6247h-3.1931l-1.267-3.486h-5.9194l-1.231,3.486h-3.0374Zm1.4231,2.9028-1.997,5.6235h4.0661Z" transform="translate(-25.2345 -2)"></path><path class="cls-1" d="M176.0584,7.4237h6.3005a5.9937,5.9937,0,0,1,4.9029,1.9327q1.5894,1.9348,1.5894,6.0078a10.9448,10.9448,0,0,1-.53,3.6069,5.8424,5.8424,0,0,1-1.5774,2.438,4.9042,4.9042,0,0,1-1.7582,1.043,8.2765,8.2765,0,0,1-2.543.318h-6.3844ZM182.3,10.0958h-3.3493v9.9957H182.3a2.98,2.98,0,0,0,2.6608-1.0833,7.5961,7.5961,0,0,0,.7235-3.9152,7.6707,7.6707,0,0,0-.7235-3.92A2.9739,2.9739,0,0,0,182.3,10.0958Z" transform="translate(-25.2345 -2)"></path><path class="cls-1" d="M60.92,77.3829c-19.683,0-35.6854-16.9077-35.6854-37.69C25.2345,18.9056,41.2369,2,60.92,2,80.5975,2,96.6046,18.9056,96.6046,39.6927c0,20.7825-16.0071,37.69-35.6847,37.69Z" transform="translate(-25.2345 -2)"></path><path class="cls-1" d="M92.41,39.8864c0,18.1956-13.9679,32.9467-31.2015,32.9467S30.0065,58.082,30.0065,39.8864c0-18.1978,13.9679-32.9485,31.2022-32.9485S92.41,21.6886,92.41,39.8864Z" transform="translate(-25.2345 -2)"></path><path class="cls-2" d="M61.2087,73.5078c-17.5582,0-31.833-15.0824-31.833-33.6214,0-18.5431,14.2748-33.6236,31.833-33.6236,17.5533,0,31.8324,15.08,31.8324,33.6236,0,18.539-14.2791,33.6214-31.8324,33.6214Zm0-65.8965c-16.8563,0-30.572,14.48-30.572,32.2751,0,17.7932,13.7157,32.273,30.572,32.273s30.5756-14.48,30.5756-32.273c0-17.7954-13.7205-32.2751-30.5756-32.2751Z" transform="translate(-25.2345 -2)"></path><path class="cls-3" d="M82.7466,40.3848c0,12.3447-9.508,22.3493-21.2274,22.3493-11.7316,0-21.24-10.0046-21.24-22.3493s9.508-22.3508,21.24-22.3508C73.2386,18.034,82.7466,28.0406,82.7466,40.3848Z" transform="translate(-25.2345 -2)"></path><path class="cls-4" d="M61.5192,63.3993c-12.0549,0-21.8618-10.3248-21.8618-23.0145,0-12.6915,9.8069-23.0143,21.8618-23.0143,12.047,0,21.85,10.3228,21.85,23.0143,0,12.69-9.8027,23.0145-21.85,23.0145Zm0-44.7c-11.3742,0-20.6173,9.73-20.6173,21.6854,0,11.9576,9.2431,21.6836,20.6173,21.6836,11.3621,0,20.6094-9.726,20.6094-21.6836,0-11.9556-9.2473-21.6854-20.6094-21.6854Z" transform="translate(-25.2345 -2)"></path><path class="cls-5" d="M61.078,12.9366c-.4454.9223-1.29,1.3445-1.87,2.218a3.6464,3.6464,0,0,0-.6266,3.0147c.1726.73.7822,1.4331.1434,2.1454-.1641.1827-.6016.2965-.8367.5576-.273.3079-.5342.7205-.7985,1.0735a3.7819,3.7819,0,0,0-.849,2.8071c.2436.9341,1.2063.7653,1.5167,1.5664.16.414-.0078.889.2189,1.27a1.5717,1.5717,0,0,0,1.0762.601,3.0737,3.0737,0,0,0,2.6689-.2162c.3532-.2844.6522-.8891,1.0891-1.1286.4247-.2392.9292-.0076,1.37-.2295,1.45-.7362.2266-2.0827-.7439-2.3338.6636-.7656,2.5384-1.8039,1.1722-2.9444-.4745-.3927-1.1642-.4575-1.597-.9109-.5973-.6357-.223-.8655,0-1.529a2.12,2.12,0,0,0-.0419-1.7782c-.37-.4869-1.0805-.4594-1.4293-1.0618-.4205-.7461-.1386-1.48-.1848-2.2674-.0382-.64-.3743-.9693-.42-1.6135a2.4522,2.4522,0,0,1-.2018,1.3037" transform="translate(-25.2345 -2)"></path><path class="cls-1" d="M60.38,28.7217a5.7223,5.7223,0,0,1-1.4-.202,1.85,1.85,0,0,1-1.27-.75,1.6138,1.6138,0,0,1-.1848-.8538,1.3244,1.3244,0,0,0-.0631-.4651c-.0967-.2534-.2814-.3692-.58-.5338a1.6474,1.6474,0,0,1-.9456-1.0758,4.0334,4.0334,0,0,1,.9079-3.107c.08-.1121.1678-.2279.2516-.35a7.6177,7.6177,0,0,1,.564-.7441,1.9111,1.9111,0,0,1,.58-.4023,1.2464,1.2464,0,0,0,.2522-.157c.3154-.3493.2146-.6555-.0043-1.2108a5.2825,5.2825,0,0,1-.2139-.6187,3.993,3.993,0,0,1,.6764-3.2935,6.0807,6.0807,0,0,1,.9164-1.0346,7.45,7.45,0,0,0,.601-.6339,2.1341,2.1341,0,0,0,.1555-1.0324.2443.2443,0,0,0-.0042-.055l.6265-.0608a.2305.2305,0,0,1,.0037.0511,2.6275,2.6275,0,0,0,.1853.6555,2.6738,2.6738,0,0,1,.2316.9226,7.1239,7.1239,0,0,1-.017.7871,2.1181,2.1181,0,0,0,.164,1.321,1.2657,1.2657,0,0,0,.6345.479,1.9567,1.9567,0,0,1,.7608.5454,2.53,2.53,0,0,1,.1009,2.1124c-.0547.163-.1222.302-.1762.4277-.1726.3669-.2018.4242.1008.7438a2.202,2.202,0,0,0,.7481.4359,3.1135,3.1135,0,0,1,.82.4514,1.4765,1.4765,0,0,1,.6089,1.0954c.0085.7381-.6472,1.3269-1.2227,1.8431-.0589.0511-.1137.1022-.1683.1493A2.0933,2.0933,0,0,1,65.1551,25.63a1.2783,1.2783,0,0,1-.8362,1.2875,1.69,1.69,0,0,1-.82.1453,1.0287,1.0287,0,0,0-.5463.0786,2.1948,2.1948,0,0,0-.5591.5732,3.4927,3.4927,0,0,1-.4789.53,2.3739,2.3739,0,0,1-1.5344.477Zm.6387-15.0825a6.9614,6.9614,0,0,1-.7269.7849,5.79,5.79,0,0,0-.8282.9228,3.2867,3.2867,0,0,0-.5761,2.7379,3.84,3.84,0,0,0,.1811.5221,1.6849,1.6849,0,0,1-.1179,1.9393,1.5319,1.5319,0,0,1-.4369.2985,1.4977,1.4977,0,0,0-.3951.2611,8.4834,8.4834,0,0,0-.5214.685c-.0887.1237-.1726.2492-.2564.365a3.4343,3.4343,0,0,0-.7986,2.5068c.0882.3394.2857.4631.6345.6572a1.6882,1.6882,0,0,1,.87.8718,1.9594,1.9594,0,0,1,.1051.7066,1.0559,1.0559,0,0,0,.0882.5062c.16.2691.4837.3514.849.4478a2.7546,2.7546,0,0,0,2.4423-.1453,3.432,3.432,0,0,0,.3828-.4279,2.6326,2.6326,0,0,1,.7523-.7341,1.5451,1.5451,0,0,1,.832-.1592,1.26,1.26,0,0,0,.5506-.0763c.3409-.1749.5-.3789.4794-.6065a1.6466,1.6466,0,0,0-1.1643-1.0936l-.5214-.1351.3616-.42a6.3614,6.3614,0,0,1,.5754-.5574c.45-.3987,1.0094-.899.9967-1.3153a.8079.8079,0,0,0-.3616-.5732,2.6337,2.6337,0,0,0-.6685-.359,2.6516,2.6516,0,0,1-.95-.5809,1.1452,1.1452,0,0,1-.2273-1.5253c.0462-.1081.1009-.2239.1471-.3612a1.7982,1.7982,0,0,0,.0048-1.4484,1.3334,1.3334,0,0,0-.5384-.3593,1.8561,1.8561,0,0,1-.9079-.7439,2.8509,2.8509,0,0,1-.2564-1.7254,5.4462,5.4462,0,0,0,.0213-.6907c-.0043-.061-.0128-.122-.0213-.1748Z" transform="translate(-25.2345 -2)"></path><path class="cls-6" d="M62.3852,10.5693a1.5968,1.5968,0,1,1-3.1862,0,1.5967,1.5967,0,1,1,3.1862,0Z" transform="translate(-25.2345 -2)"></path><path class="cls-7" d="M42.8307,28.3605l-.5207,1.36a7.3909,7.3909,0,0,1-1.8286,2.8973,4.0323,4.0323,0,0,1-1.7064.9736,2.5633,2.5633,0,0,1-1.74-.1121,2.95,2.95,0,0,1-1.5174-1.5741,5.1434,5.1434,0,0,1-.4035-1.796,8.0878,8.0878,0,0,1,.5758-3.2781l.5169-1.3621,1.8959.8286-.2947.781a5.4892,5.4892,0,0,0-.3233,1.1444,2.2579,2.2579,0,0,0,.1216,1.262,1.3373,1.3373,0,0,0,.6727.72,1.137,1.137,0,0,0,.9419-.02,2.14,2.14,0,0,0,.9122-.844,5.0054,5.0054,0,0,0,.5-1.0286l.2984-.7833Z" transform="translate(-25.2345 -2)"></path><path class="cls-7" d="M49.2456,21.1018l-1.0549,1.0563a6.5182,6.5182,0,0,1-3.5818,2.0412,2.8825,2.8825,0,0,1-2.7614-.94,3.3775,3.3775,0,0,1-.6855-3.0111,7.1935,7.1935,0,0,1,2.14-3.6862l1.055-1.0559,1.2986,1.4858-.79.7911a4.8007,4.8007,0,0,0-.7524.9027,1.8912,1.8912,0,0,0-.2856,1.3448l2.3871-2.3951,1.1771,1.3429-2.3955,2.39a1.5929,1.5929,0,0,0,1.2524-.2157,4.8309,4.8309,0,0,0,.9079-.7457l.79-.7892Z" transform="translate(-25.2345 -2)"></path><path class="cls-7" d="M57.1772,17.5729l-1.7738.6907a13.1556,13.1556,0,0,1-1.543.5358,3.11,3.11,0,0,1-1.555,0,2.028,2.028,0,0,1-.8575-.4592,2.5839,2.5839,0,0,1-.6223-1.109l-.1343-.3905-1.4755-4.3244,2.9929-1.166,1.4712,4.31a1.6445,1.6445,0,0,0,.1975.4279.5189.5189,0,0,0,.395.1688,1.0688,1.0688,0,0,0,.3452-.0431c.1428-.0394.2729-.0843.3993-.1314l.319-.126,1.1352-.4455Z" transform="translate(-25.2345 -2)"></path><path class="cls-7" d="M72.4188,14.3259l-1.6183-.5493-1.5344,5.2211L66.227,17.973l1.5345-5.2192-1.6141-.5477.6181-2.09,6.2672,2.1177Z" transform="translate(-25.2345 -2)"></path><path class="cls-7" d="M77.7909,25.3238,76.6977,24.315a7.179,7.179,0,0,1-2.2777-3.59,3.4011,3.4011,0,0,1,.5712-3.0364,2.8972,2.8972,0,0,1,2.728-1.0582,6.4719,6.4719,0,0,1,3.6486,1.8846l1.0932,1.0087-1.236,1.5429-.8241-.7559a5.009,5.009,0,0,0-.9164-.7026,1.5756,1.5756,0,0,0-1.2688-.1686l2.4794,2.2844L79.5733,23.12l-2.48-2.2884a1.8928,1.8928,0,0,0,.3361,1.3091,4.49,4.49,0,0,0,.7864.8873l.8192.7555Z" transform="translate(-25.2345 -2)"></path><path class="cls-7" d="M39.8761,58.3152l-.6812-1.0244.6053-.54-.2267-.3354.5044-.45.2224.3355.147-.1278a.2774.2774,0,0,0,.1094-.1884.3743.3743,0,0,0-.0753-.2219c-.0675-.0959-.1307-.1407-.1975-.1373a.3067.3067,0,0,0-.1477.0789l-1.2524,1.1163-.6764-1.0221,1.0591-.9422a1.6951,1.6951,0,0,1,.4583-.3279.8169.8169,0,0,1,.6891.0959,1.5451,1.5451,0,0,1,.3409.2593,2.8274,2.8274,0,0,1,.3063.3752,2.735,2.735,0,0,1,.2273.4313,2.4271,2.4271,0,0,1,.13.45,1.2156,1.2156,0,0,1-.1051.7974,1.7247,1.7247,0,0,1-.3822.4353Z" transform="translate(-25.2345 -2)"></path><path class="cls-7" d="M43.3351,62.3294l-.7772-.8614.8617-1.2288a.3943.3943,0,0,0,.0462-.063.1834.1834,0,0,0,.0128-.0488c-.0086-.01-.0214-.01-.0383-.004a.9857.9857,0,0,0-.1088.067l-.883.5533a.6948.6948,0,0,1-.3573.147.3814.3814,0,0,1-.2607-.1611.4943.4943,0,0,1-.1471-.2861,1.1049,1.1049,0,0,1,.1136-.42l.4412-1.05c.0462-.0982.059-.1572.0462-.1725a.0679.0679,0,0,0-.0292.0153.3451.3451,0,0,0-.0674.0551l-1.0173,1.0584-.7778-.8621,1.5642-1.4955a.5177.5177,0,0,1,.3531-.1611.7984.7984,0,0,1,.5669.324,1.3635,1.3635,0,0,1,.2692.4257.7672.7672,0,0,1-.0334.542l-.2941.75a.2487.2487,0,0,0-.0213.0726.1094.1094,0,0,0,.0042.0312.049.049,0,0,0,.0256-.0034.4523.4523,0,0,0,.0668-.0181l.6308-.369a.5081.5081,0,0,1,.4454-.0806,1.0781,1.0781,0,0,1,.3908.2985,1.239,1.239,0,0,1,.2649.4081.7076.7076,0,0,1-.0753.6578Z" transform="translate(-25.2345 -2)"></path><path class="cls-7" d="M46.7783,64.0531a.6312.6312,0,0,1-.4837.3354,1.2924,1.2924,0,0,1-.9249-.3808l-.3318-.2707.3743-.6322.0839.0652a.4342.4342,0,0,0,.2564.1215.1289.1289,0,0,0,.1174-.0648.1784.1784,0,0,0,0-.1787.6938.6938,0,0,0-.21-.23l-.0462-.0409.3148-.52.0462.0358a.2076.2076,0,0,0,.1513.0664.1144.1144,0,0,0,.1051-.0664.1542.1542,0,0,0,.0127-.1379.3522.3522,0,0,0-.1051-.1391.1878.1878,0,0,0-.1428-.0533c-.0419.0039-.0844.0431-.1263.1061l-.95,1.5761-.9079-.7418.8411-1.3916a1.36,1.36,0,0,1,.3737-.4478.81.81,0,0,1,.6849-.0585,1.4741,1.4741,0,0,1,.32.143,2.68,2.68,0,0,1,.32.214c.0839.0749.1677.1493.2395.2179a1.9109,1.9109,0,0,1,.1975.2452,1.3894,1.3894,0,0,1,.2735.6442.75.75,0,0,1-.0924.4864.4557.4557,0,0,1-.4455.23,1.1017,1.1017,0,0,1,.1471.4592A.6479.6479,0,0,1,46.7783,64.0531Z" transform="translate(-25.2345 -2)"></path><path class="cls-7" d="M49.5774,66.8125l-.9918-.5925.3489-.7832-.32-.1941.2856-.6578.3281.1941.0839-.1861a.3533.3533,0,0,0,.03-.2276.327.327,0,0,0-.1513-.1635.2144.2144,0,0,0-.2316-.025.315.315,0,0,0-.1009.1431l-.7225,1.6288-.9838-.5885.6052-1.3758a1.9372,1.9372,0,0,1,.2984-.522.8415.8415,0,0,1,.6557-.2555,1.3718,1.3718,0,0,1,.3993.0669,1.9479,1.9479,0,0,1,.4162.1886,2.3218,2.3218,0,0,1,.37.2785,1.5348,1.5348,0,0,1,.2772.3435,1.1852,1.1852,0,0,1,.2017.7712,2.0964,2.0964,0,0,1-.189.5852Z" transform="translate(-25.2345 -2)"></path><path class="cls-7" d="M53.0455,66.1474l-.5591-.2418-.6222,1.94-1.0386-.4517.6223-1.941-.5549-.2418.2522-.777,2.1525.9382Z" transform="translate(-25.2345 -2)"></path><path class="cls-7" d="M56.98,67.9334a1.2116,1.2116,0,0,1-.7395.8894,1.97,1.97,0,0,1-1.371.0823,2.2019,2.2019,0,0,1-1.1978-.7753,1.4109,1.4109,0,0,1-.3275-1.176,1.2312,1.2312,0,0,1,.7395-.891,1.9843,1.9843,0,0,1,1.3747-.0823,2.2147,2.2147,0,0,1,1.194.7752A1.4,1.4,0,0,1,56.98,67.9334Zm-1.1224-.3025a.548.548,0,0,0-.1215-.4529.81.81,0,0,0-.4625-.2985.7359.7359,0,0,0-.5214.0312.49.49,0,0,0-.2862.3479.565.565,0,0,0,.1221.4529.8506.8506,0,0,0,.4625.2985.7581.7581,0,0,0,.53-.0335A.47.47,0,0,0,55.8573,67.6309Z" transform="translate(-25.2345 -2)"></path><path class="cls-7" d="M60.8173,69.0072l-1.4038-.0925.0292-.571,1.4.09Z" transform="translate(-25.2345 -2)"></path><path class="cls-7" d="M65.8114,69.4982l-.5007.0607a2.03,2.03,0,0,1-1.3953-.2571,1.24,1.24,0,0,1-.5883-.9581,1.3037,1.3037,0,0,1,.3993-1.0817,2.1753,2.1753,0,0,1,1.3241-.5908l.5-.0585.0669.7651-.3694.0432a1.437,1.437,0,0,0-.3914.0907.6126.6126,0,0,0-.34.3355l1.1352-.1374.0627.6929-1.1346.1414a.5632.5632,0,0,0,.3865.2372,1.533,1.533,0,0,0,.4035-.0039l.3743-.0432Z" transform="translate(-25.2345 -2)"></path><path class="cls-7" d="M68.9258,68.7228l-.4667.1255a2.1035,2.1035,0,0,1-1.1431.0233,1.4141,1.4141,0,0,1-.601-.3553,1.1329,1.1329,0,0,1-.32-.6027,1.3369,1.3369,0,0,1,.118-.85,1.7116,1.7116,0,0,1,.395-.5221A2.3285,2.3285,0,0,1,67.9,66.02l.4667-.1254.16.8088-.2692.072a1.551,1.551,0,0,0-.37.142.7.7,0,0,0-.3106.3156.6157.6157,0,0,0-.0589.3813.5143.5143,0,0,0,.1974.31.7015.7015,0,0,0,.4078.1214,1.3969,1.3969,0,0,0,.3781-.0607l.2649-.0709Z" transform="translate(-25.2345 -2)"></path><path class="cls-7" d="M72.0913,66.3766a1.1027,1.1027,0,0,1,.0335.5517,1.3026,1.3026,0,0,1-.454.6754,1.9406,1.9406,0,0,1-.5469.336,1.7794,1.7794,0,0,1-.6053.1487,1.0271,1.0271,0,0,1-.71-.1822.95.95,0,0,1-.282-.4535L68.9848,65.7l1.0422-.4354.5548,1.7839a.1709.1709,0,0,0,.1094.12.2707.2707,0,0,0,.19-.0136.3264.3264,0,0,0,.1507-.13.1946.1946,0,0,0,.0212-.1747l-.5548-1.7861,1.0465-.4375Z" transform="translate(-25.2345 -2)"></path><path class="cls-7" d="M75.7521,65.4311l-.9918.5925-.3488-.7832-.3282.1964-.2941-.6578.3281-.198-.08-.1845c-.0419-.0925-.088-.147-.1428-.1629a.2515.2515,0,0,0-.2017.0511.2673.2673,0,0,0-.1513.2.4467.4467,0,0,0,.0377.1811l.7231,1.6288-.9839.5931-.6137-1.3763a2.6532,2.6532,0,0,1-.1933-.5806,1.2209,1.2209,0,0,1,.206-.77,1.5642,1.5642,0,0,1,.2778-.3433,2.2436,2.2436,0,0,1,.3737-.2827,2.07,2.07,0,0,1,.4035-.1867,1.2967,1.2967,0,0,1,.4077-.0647.8523.8523,0,0,1,.6558.2554,1.9187,1.9187,0,0,1,.3026.52Z" transform="translate(-25.2345 -2)"></path><path class="cls-7" d="M78.3585,61.7051a1.2052,1.2052,0,0,1,.1762.6187,1.9047,1.9047,0,0,1-.1719.7736,2.0676,2.0676,0,0,1-.6266.824l-.08.0688-.412-.6828.0419-.0358a.51.51,0,0,0,.2061-.3865.6757.6757,0,0,0-.0967-.4552.4843.4843,0,0,0-.3409-.2435.63.63,0,0,0-.5044.1686l-.0462.0415,1.0216,1.7014-.9165.7361-1.425-2.3791L76,61.792a3.5149,3.5149,0,0,1,.8034-.5142,1.3612,1.3612,0,0,1,.9663-.067.9908.9908,0,0,1,.3323.1828A1.1822,1.1822,0,0,1,78.3585,61.7051Z" transform="translate(-25.2345 -2)"></path><path class="cls-7" d="M81.6285,58.204a1.43,1.43,0,0,1,.223,1.2089,2.7284,2.7284,0,0,1-.7019,1.3678,2.12,2.12,0,0,1-1.219.7241,1.0007,1.0007,0,0,1-1.0258-.3354,1.4178,1.4178,0,0,1-.223-1.2088,2.7086,2.7086,0,0,1,.7019-1.37,2.1627,2.1627,0,0,1,1.2232-.7247A1.0062,1.0062,0,0,1,81.6285,58.204Zm-.8447.916a.3749.3749,0,0,0-.3914-.1311.8166.8166,0,0,0-.47.2747,1.0526,1.0526,0,0,0-.2649.5261.554.554,0,0,0,.088.4654.3871.3871,0,0,0,.3956.1334.8624.8624,0,0,0,.4705-.277,1.0632,1.0632,0,0,0,.2649-.5261A.5251.5251,0,0,0,80.7838,59.12Z" transform="translate(-25.2345 -2)"></path><path class="cls-7" d="M84.8061,56.0172,84.1,57.0178l-.4163-.3961c-.0122-.0136-.0291-.0273-.0461-.0455-.0164-.0152-.0335-.0295-.05-.047a.2333.2333,0,0,0-.1435-.0784c-.0583.0017-.1215.0511-.1848.1436l-.05.0727-.4539-.4359.05-.0709a.439.439,0,0,0,.0924-.2356.1992.1992,0,0,0-.0547-.1628.1274.1274,0,0,0-.1428-.0279.33.33,0,0,0-.16.1237.3171.3171,0,0,0-.0712.2578.3323.3323,0,0,0,.1009.1549l.0292.0272,1.202,1.1448-.71.9988-1.202-1.1481a1.0457,1.0457,0,0,1-.3361-.8581,1.9512,1.9512,0,0,1,.4036-1.0341,1.8886,1.8886,0,0,1,.8192-.7248.5645.5645,0,0,1,.6222.0807.5906.5906,0,0,1,.1556.25.8441.8441,0,0,1,.0213.45.5.5,0,0,1,.3487-.14.8335.8335,0,0,1,.4327.2707Z" transform="translate(-25.2345 -2)"></path><polygon class="cls-1" points="50.774 28.072 37.243 28.072 37.243 34.449 40.534 34.449 40.534 54.447 46.289 54.447 46.289 34.449 50.774 34.449 50.774 28.072"></polygon><path class="cls-8" d="M71.6829,56.6137H65.61V36.6182H62.3183V29.9033h13.85v6.7149H71.6829V56.6137Zm-5.7585-.3377h5.4438V36.2826h4.48V30.241H62.6331v6.0416h3.2913V56.276Z" transform="translate(-25.2345 -2)"></path><path class="cls-7" d="M76.0086,29.86H62.2758v6.8031h3.493l-.1932-.2139v20.21h6.15v-20.21l-.2018.2139H76.206V29.86Zm0,6.3752h-4.683V56.4469l.1981-.2123H65.7688l.2018.2123V36.2354H62.4775l.1982.214V30.0719l-.1982.21H76.0086l-.2018-.21v6.3775Z" transform="translate(-25.2345 -2)"></path><path class="cls-8" d="M71.1664,56.8555v-.0261H65.4158V36.8319H62.12V29.6911H76.3658v7.1408H71.881V56.0644h.0249l-.0249.0272v.7378l-.7146.0261Zm-5.04-.3672h5.04v-.0846h-5.04v.0846Zm5.3551-.4239h.0844V36.8319h-.0844V56.0644Zm-5.3551,0h5.04V36.8319h-.0213l.0213-.0253v-.74h4.489V30.4527H62.8312v5.6139h3.2949V56.0644Zm-.3992,0h.0845V36.8319h-.0845V56.0644ZM71.881,36.4925h3.7744v-.0883H71.881v.0883Zm-9.05,0h2.5846v-.0883H62.8312v.0883Zm13.1311-.4259h.0882V30.4527h-.0882v5.6139Zm-13.5267,0H62.52V30.4527h-.0845v5.6139Zm.3956-5.9513H75.6554V30.027H62.8312v.0883Z" transform="translate(-25.2345 -2)"></path><rect class="cls-1" x="38.3989" y="36.9301" width="4.4683" height="14.9122"></rect><path class="cls-8" d="M68.2573,54.011H63.4779V38.7616h4.7794V54.011Zm-4.4641-.3377h4.1487V39.0993H63.7932v14.574Z" transform="translate(-25.2345 -2)"></path><path class="cls-7" d="M68.1018,53.63H63.6334l.1981.2123V38.93l-.1981.21h4.4684L67.9,38.93V53.8424Zm0-14.9133H63.4365V54.0541h4.8628V38.7168Z" transform="translate(-25.2345 -2)"></path><path class="cls-8" d="M67.74,54.2505v-.0256H63.2809V38.55h5.1739v15.675l-.7146.0256Zm-3.7494-.3633H67.74v-.0885H63.9908v.0885Zm4.0691-.4256h.0838V39.3093H68.06V53.4616Zm-4.0691,0H67.74V39.3093H63.9908V53.4616Zm-.3951,0h.076V39.3093h-.076V53.4616Zm.3951-14.4883H67.74v-.088H63.9908v.088Z" transform="translate(-25.2345 -2)"></path><path class="cls-1" d="M67.7068,35.8115A2.2412,2.2412,0,1,1,65.47,33.4187,2.3174,2.3174,0,0,1,67.7068,35.8115Z" transform="translate(-25.2345 -2)"></path><path class="cls-8" d="M65.47,38.3711a2.5655,2.5655,0,1,1,2.392-2.56,2.4846,2.4846,0,0,1-2.392,2.56Zm0-4.7816a2.2274,2.2274,0,1,0,2.0723,2.222A2.1569,2.1569,0,0,0,65.47,33.59Z" transform="translate(-25.2345 -2)"></path><path class="cls-7" d="M67.505,35.8115A2.0391,2.0391,0,1,1,65.47,33.6326,2.1125,2.1125,0,0,1,67.505,35.8115ZM65.47,33.2087a2.61,2.61,0,1,0,2.43,2.6028A2.5266,2.5266,0,0,0,65.47,33.2087Z" transform="translate(-25.2345 -2)"></path><path class="cls-8" d="M65.47,38.5851a2.7811,2.7811,0,1,1,2.59-2.7736,2.6924,2.6924,0,0,1-2.59,2.7736Zm0-5.2095a2.442,2.442,0,1,0,2.27,2.4359,2.3626,2.3626,0,0,0-2.27-2.4359Zm0,4.7855a2.3551,2.3551,0,1,1,2.1945-2.35,2.28,2.28,0,0,1-2.1945,2.35Zm0-4.36a2.0159,2.0159,0,1,0,1.8748,2.01,1.9449,1.9449,0,0,0-1.8748-2.01Z" transform="translate(-25.2345 -2)"></path><path class="cls-1" d="M79.6741,55.9974H77.8286a6.1327,6.1327,0,0,1-4.9892-2.32,8.49,8.49,0,0,1-1.8079-5.5648,8.4987,8.4987,0,0,1,1.8079-5.5648,6.1343,6.1343,0,0,1,4.9892-2.32h1.8455V44.41H78.2953a3.64,3.64,0,0,0-1.4335.2259A2.58,2.58,0,0,0,75.5041,46.23h4.17v3.7844h-4.17a2.5674,2.5674,0,0,0,1.337,1.5528,3.6655,3.6655,0,0,0,1.4542.2475h1.3788Z" transform="translate(-25.2345 -2)"></path><path class="cls-8" d="M79.83,56.1642H77.8286a6.32,6.32,0,0,1-5.1071-2.3751,8.6958,8.6958,0,0,1-1.8456-5.6767,8.7,8.7,0,0,1,1.8456-5.6765,6.3143,6.3143,0,0,1,5.1071-2.3752H79.83V44.58H78.2953a3.4164,3.4164,0,0,0-1.37.214,2.2924,2.2924,0,0,0-1.185,1.2678h4.09v4.1221H75.7436a2.2965,2.2965,0,0,0,1.1606,1.2288,3.4961,3.4961,0,0,0,1.3911.2332H79.83v4.5188ZM77.8286,40.3967a6.02,6.02,0,0,0-4.8719,2.2611,8.376,8.376,0,0,0-1.7654,5.4546,8.3645,8.3645,0,0,0,1.7654,5.4531,6.0156,6.0156,0,0,0,4.8719,2.2628h1.6857V51.9837h-1.219a3.7857,3.7857,0,0,1-1.5132-.2611,2.72,2.72,0,0,1-1.425-1.6453l-.0839-.23h4.2411V46.3991H75.2732l.0839-.2316a2.7321,2.7321,0,0,1,1.4463-1.6862,3.6432,3.6432,0,0,1,1.4919-.2395h1.219V40.3967Z" transform="translate(-25.2345 -2)"></path><path class="cls-7" d="M79.6741,55.7851H77.8286a5.96,5.96,0,0,1-4.8379-2.2492,8.3037,8.3037,0,0,1-1.7574-5.4235,8.322,8.322,0,0,1,1.7574-5.4273,5.9649,5.9649,0,0,1,4.8379-2.2476h1.8455l-.2017-.21V44.41l.2017-.2133H78.2953a3.7564,3.7564,0,0,0-1.5132.2452,2.79,2.79,0,0,0-1.4627,1.7094l-.1094.2906h4.4641l-.2017-.2123v3.7844l.2017-.2117H75.21l.1094.2905a2.7736,2.7736,0,0,0,1.45,1.67,3.7959,3.7959,0,0,0,1.5259.2633h1.3788l-.2017-.2122v4.1828Zm0-4.1806H78.2953a3.4234,3.4234,0,0,1-1.3746-.2337,2.3626,2.3626,0,0,1-1.2354-1.4348l-.1812.2928h4.3633V46.0182H75.5041l.1812.2889a2.3757,2.3757,0,0,1,1.2523-1.4722,3.39,3.39,0,0,1,1.3577-.214h1.5721V40.0142H77.8286a6.3379,6.3379,0,0,0-5.1369,2.3944,8.724,8.724,0,0,0-1.8577,5.7038,8.7341,8.7341,0,0,0,1.8577,5.7061,6.3461,6.3461,0,0,0,5.1369,2.3928h2.0388V51.6045Z" transform="translate(-25.2345 -2)"></path><path class="cls-8" d="M79.3168,56.4037v-.0255H77.8286a6.4835,6.4835,0,0,1-5.2542-2.4518,8.9159,8.9159,0,0,1-1.9-5.814,8.9247,8.9247,0,0,1,1.9-5.8156,6.4837,6.4837,0,0,1,5.2542-2.4517h2.1986V44.79H78.2953a3.32,3.32,0,0,0-1.2987.1987,1.9728,1.9728,0,0,0-.9249.8592h3.9555v4.5483H76.08a1.9719,1.9719,0,0,0,.8994.82,3.3081,3.3081,0,0,0,1.3157.218h1.7319v4.9444l-.71.0255Zm-1.4882-16.221a6.1832,6.1832,0,0,0-5.019,2.3378,8.5772,8.5772,0,0,0-1.82,5.5919,8.5829,8.5829,0,0,0,1.82,5.5944,6.1934,6.1934,0,0,0,5.019,2.336h1.4882v-.0886H77.8286a6.1393,6.1393,0,0,1-4.96-2.3064,8.4726,8.4726,0,0,1-1.7945-5.5354,8.4775,8.4775,0,0,1,1.7945-5.5352,6.1357,6.1357,0,0,1,4.96-2.3082h1.4882v-.0863Zm1.803,15.4339h.08V52.1954h-.08v3.4212Zm-1.803-15.0077a5.8221,5.8221,0,0,0-4.72,2.19,8.1568,8.1568,0,0,0-1.7156,5.3133,8.1533,8.1533,0,0,0,1.7156,5.314,5.8239,5.8239,0,0,0,4.72,2.19h1.4882V52.1954H78.2953a3.9433,3.9433,0,0,1-1.5891-.2747,2.8207,2.8207,0,0,1-1.433-1.525h-.0675l.0378-.0613c-.025-.0568-.05-.1175-.0712-.1765l-.1981-.5239h.7111l.0376-.055.0207.055h3.5732V46.6113H75.7436l-.0165.0528-.034-.0528h-.714l.189-.52c.0249-.0608.05-.1215.0711-.18l-.0335-.063h.059a2.8645,2.8645,0,0,1,1.4584-1.5625,3.8979,3.8979,0,0,1,1.5722-.2571h1.0215V40.6089Zm-2.2023,9.7868a2.4329,2.4329,0,0,0,1.202,1.2111,3.6547,3.6547,0,0,0,1.467.2532h1.0215v-.0886H78.2953a3.5737,3.5737,0,0,1-1.4335-.2451A2.339,2.339,0,0,1,75.71,50.3957Zm.2814-.336h3.4091v-.0862H75.87a.3466.3466,0,0,1,.0378.0862Zm3.7239-.4257h.08V46.6113h-.08V49.634Zm-3.7617-3.36h3.4469v-.0885H75.9033c-.0127.0295-.0212.059-.0334.0885Zm-.16-.4262h0a2.31,2.31,0,0,1,1.1728-1.1658,3.4143,3.4143,0,0,1,1.4123-.2275h1.0215v-.0869H78.2953a3.6143,3.6143,0,0,0-1.4506.23,2.4825,2.4825,0,0,0-1.2269,1.25Zm3.9214-1.82h.08V40.6089h-.08v3.4189Z" transform="translate(-25.2345 -2)"></path><polygon class="cls-1" points="38.202 45.663 38.202 26.425 32.447 26.425 32.447 51.827 41.527 51.827 41.527 45.663 38.202 45.663"></polygon><path class="cls-8" d="M66.921,53.995H57.5218v-25.74h6.0739v19.24H66.921V53.995Zm-9.0838-.3371h8.7642V47.83h-3.32V28.594H57.8372V53.6579Z" transform="translate(-25.2345 -2)"></path><path class="cls-7" d="M63.6334,47.6629v-19.45H57.48V54.0405h9.4788V47.449H63.4365Zm2.93,0v6.1636l.1975-.2117h-9.08l.1975.2117V28.4254l-.1975.2117h5.7549l-.2018-.2117V47.873h3.5265Z" transform="translate(-25.2345 -2)"></path><path class="cls-8" d="M66.4081,54.2346V54.209H57.32V28.0424h6.4732V47.28h3.3254V54.209l-.71.0256Zm-8.3734-.3633h8.3734v-.09H58.0347v.09Zm8.6882-.4256h.076V48.0438h-.076v5.4019Zm-8.6882,0h8.3734V48.0438h-3.329V28.804H58.0347V53.4457Zm-.3992,0h.0838V28.804h-.0838V53.4457Zm6.1577-5.739h2.6149v-.0886H63.7932v.0886ZM63.394,47.28h.0839V28.804H63.394V47.28ZM58.0347,28.47h5.0444v-.09H58.0347v.09Z" transform="translate(-25.2345 -2)"></path><path class="cls-1" d="M57.7029,52.9236h-3.22a11.3174,11.3174,0,0,1-8.718-3.59,12.204,12.204,0,0,1-3.1521-8.6068,12.1947,12.1947,0,0,1,3.1521-8.6072,11.3172,11.3172,0,0,1,8.718-3.59h3.22v6.4714h-2.409a6.9968,6.9968,0,0,0-2.5006.3517,4.1615,4.1615,0,0,0-2.3749,2.4609h7.2845v5.8576H50.4184a4.145,4.145,0,0,0,2.3409,2.3967,7.0191,7.0191,0,0,0,2.5346.3848h2.409Z" transform="translate(-25.2345 -2)"></path><path class="cls-8" d="M57.8627,53.09h-3.38a11.4982,11.4982,0,0,1-8.8274-3.6414,12.41,12.41,0,0,1-3.2025-8.7225,12.4235,12.4235,0,0,1,3.2025-8.7249,11.4975,11.4975,0,0,1,8.8274-3.6392h3.38V35.17H55.2939a6.8864,6.8864,0,0,0-2.4459.3394,3.9593,3.9593,0,0,0-2.1816,2.1356h7.1963v6.1931H50.67A3.94,3.94,0,0,0,52.8139,45.91a6.9241,6.9241,0,0,0,2.48.3728h2.5688V53.09Zm-3.38-24.39a11.2064,11.2064,0,0,0-8.6044,3.539,12.0656,12.0656,0,0,0-3.11,8.4874,12.0545,12.0545,0,0,0,3.11,8.483,11.2026,11.2026,0,0,0,8.6044,3.5455h3.0646V46.6209H55.2939a7.247,7.247,0,0,1-2.5893-.3927,4.3485,4.3485,0,0,1-2.43-2.4887l-.1008-.2378h7.3731V37.9824H50.1742l.1008-.2356a4.3353,4.3353,0,0,1,2.4636-2.5536,7.1874,7.1874,0,0,1,2.5553-.3613h2.2534V28.7Z" transform="translate(-25.2345 -2)"></path><path class="cls-7" d="M57.7029,52.71h-3.22a11.172,11.172,0,0,1-8.5746-3.525,12.034,12.034,0,0,1-3.098-8.4581,12.0339,12.0339,0,0,1,3.098-8.4582,11.165,11.165,0,0,1,8.5746-3.525h3.22l-.1975-.214v6.4714l.1975-.2139h-2.409a7.1955,7.1955,0,0,0-2.5681.3669,4.3931,4.3931,0,0,0-2.4927,2.5755l-.1173.2963h7.5871l-.1975-.2122v5.8576l.1975-.214h-7.592l.1307.3A4.3612,4.3612,0,0,0,52.6961,46.27a7.238,7.238,0,0,0,2.5978.3945h2.409l-.1975-.2117v6.4712Zm0-6.4717h-2.409a6.9122,6.9122,0,0,1-2.4671-.3666,4.0176,4.0176,0,0,1-2.2279-2.289l-.1805.2985H57.9V37.6015h-7.482l.1805.2986A3.9953,3.9953,0,0,1,52.86,35.5524a6.8248,6.8248,0,0,1,2.4337-.3414H57.9V28.3173H54.4827A11.53,11.53,0,0,0,45.6262,31.97a12.4559,12.4559,0,0,0-3.2111,8.7561,12.4516,12.4516,0,0,0,3.2111,8.7543,11.5384,11.5384,0,0,0,8.8565,3.6527H57.9V46.2379Z" transform="translate(-25.2345 -2)"></path><path class="cls-8" d="M57.3456,53.3322v-.03H54.4827a11.7038,11.7038,0,0,1-8.97-3.7,12.6218,12.6218,0,0,1-3.2579-8.8758,12.61,12.61,0,0,1,3.2579-8.8759,11.6974,11.6974,0,0,1,8.97-3.7H58.06V35.38H55.2939a6.6842,6.6842,0,0,0-2.3791.33,3.6731,3.6731,0,0,0-1.9166,1.7237H58.06v6.6164H51.0067A3.67,3.67,0,0,0,52.8814,45.71a6.7452,6.7452,0,0,0,2.4125.3592H58.06v7.2333l-.714.03Zm-2.8629-24.846a11.4027,11.4027,0,0,0-8.7472,3.6016,12.3052,12.3052,0,0,0-3.1649,8.6387,12.2974,12.2974,0,0,0,3.1649,8.6362,11.4021,11.4021,0,0,0,8.7472,3.604h2.8629v-.0886H54.4827a11.33,11.33,0,0,1-8.6882-3.5761,12.223,12.223,0,0,1-3.14-8.5755,12.2183,12.2183,0,0,1,3.14-8.5777,11.3356,11.3356,0,0,1,8.6882-3.5763h2.8629v-.0863ZM57.661,52.5411h.0795V46.8327H57.661v5.7084ZM54.4827,28.91a11.0222,11.0222,0,0,0-8.4616,3.4763,11.8462,11.8462,0,0,0-3.0554,8.34,11.8392,11.8392,0,0,0,3.0554,8.336,11.018,11.018,0,0,0,8.4616,3.4786h2.8629V46.8327H55.2939a7.3773,7.3773,0,0,1-2.6525-.4064,4.4667,4.4667,0,0,1-2.45-2.3769h-.0674l.0383-.059c-.0255-.0529-.0462-.11-.0675-.1646l-.2315-.5381H50.59l.0334-.0567.0255.0567h6.6963V38.1946H50.6493l-.0255.0568-.0334-.0568h-.7189l.223-.5323c.0213-.0568.042-.1136.0675-.17l-.0383-.059h.0674a4.49,4.49,0,0,1,2.48-2.4382,7.3368,7.3368,0,0,1,2.6227-.3746h2.0517V28.91ZM50.5484,44.0494a4.1141,4.1141,0,0,0,2.1945,2.0613,7.1626,7.1626,0,0,0,2.551.3882h2.0517V46.407H55.2939a7.0856,7.0856,0,0,1-2.5219-.3791,4.0229,4.0229,0,0,1-2.1311-1.9785Zm.282-.3354h6.5152v-.0886H50.7879a.8308.8308,0,0,1,.0425.0886Zm6.8306-.4263h.0795V38.1946H57.661v5.0931Zm-6.8731-5.4291h6.5577v-.09H50.83c-.0127.0295-.03.0607-.0425.09Zm-.1513-.4256h0a4.0448,4.0448,0,0,1,2.1689-2.04,6.9626,6.9626,0,0,1,2.4884-.349h2.0517v-.0866H55.2939a7.0755,7.0755,0,0,0-2.5176.3533,4.1145,4.1145,0,0,0-2.2321,2.1221ZM57.661,34.62h.0795V28.91H57.661v5.71Z" transform="translate(-25.2345 -2)"></path></svg> 