<svg xmlns="http://www.w3.org/2000/svg" xmlns:xlink="http://www.w3.org/1999/xlink" id="Layer_1" x="0px" y="0px" viewBox="0 0 1200 354.36" style="enable-background:new 0 0 1200 354.36;" xml:space="preserve"><style type="text/css">	.st0{fill:#FF6D00;}	.st1{fill:#418BDB;}	.st2{fill:#8DB2DA;}	.st3{fill:#FFFFFF;}</style><g>	<g>		<path class="st0" d="M363.85,101.31c6.92,0,17.51,0,25.55-0.43l8.63,32.64l7.52-32.21c8.46,0,16.06,0.34,25.63-0.43l0.51,10.76   l0.77,14.69l0.85,15.46c0.34,4.87,0.6,9.14,0.77,12.82l0.43,6.66c-2.05,0-12.65,0.26-19.05,0.51l-0.34-7.86l-0.51-12.05   l-0.34-11.53c-0.09-3.59-0.17-5.89-0.26-6.84l-1.02,3.76l-1.62,5.38l-2.56,8.71l-2.65,8.46l-1.45,4.95H391.1l-1.79-5.38   c-0.94-2.82-1.97-5.81-3.08-8.89c-1.03-3.08-1.97-5.89-2.91-8.46c-0.85-2.65-1.37-4.1-1.45-4.53l-0.51-1.96   c-0.26-1.11-0.43-1.71-0.51-1.88l-1.54,37.59c-7.26,0-16.83,0.51-19.14,0.51c1.11-15.81,2.48-36.31,3.16-50.06   C363.68,106.18,363.85,102.08,363.85,101.31z"></path>		<path class="st0" d="M479.7,161.8c-0.77-3.16-1.88-6.58-2.99-11.11h-16.32c-0.43,2.05-2.31,9.31-2.56,10.59   c-4.87,0-13.41,0.26-19.39,0.51c6.41-19.39,15.81-48.27,19.73-60.49h22.38c6.49,20.93,13.67,41.26,20.25,59.98   C497.38,161.28,485.17,161.54,479.7,161.8z M468.51,116.69l-4.87,20.42c2.22-0.26,8.37,0,9.74,0L468.51,116.69z"></path>		<path class="st0" d="M514.39,141.98c-0.68-1.28-2.05-3.93-4.19-7.77l-6.75-12.39c-2.31-4.36-4.53-8.46-6.66-12.3   c-2.13-3.84-3.42-6.41-4.02-7.52v-0.68c3.33,0,18.2-0.17,21.44-0.43l8.97,21.36l1.28,4.02l1.11-4.02l7.26-20.93   c3.25,0,17.77-0.17,20.93-0.43v0.68l-3.67,7.26c-1.88,3.76-3.93,7.86-6.07,12.3l-6.24,12.73c-1.97,4.02-3.33,6.83-4.1,8.29   c0,6.15,0.34,12.64,0.43,19.22c-5.64,0-15.21-0.17-19.99,0.09L514.39,141.98z"></path>		<path class="st0" d="M582.05,161.88c-17.43,0-29.82-10.17-29.82-30.33c0-17.86,11.11-30.84,30.24-30.84   c17.68,0,29.65,11.02,29.65,31.1C612.12,151.37,599.48,161.88,582.05,161.88z M582.13,114.81c-6.58,0-9.91,6.83-9.91,16.49   c0,10.34,3.42,16.66,9.91,16.66c6.49,0,10.17-6.41,10.17-16.4C592.3,121.9,588.71,114.81,582.13,114.81z"></path>		<path class="st0" d="M619.64,150.69v-34c0-4.36-0.6-13.24-0.85-15.38h27.94c14.69,0,21.87,8.89,21.87,19.74   c0,8.2-3.93,14.95-11.45,17.77c3.16,4.36,13.16,19.57,14.1,20.59v1.88c-5.89,0-15.46,0.26-21.53,0.51l-10.68-21.53h-0.43v5.64   c0,4.61,0.51,13.41,0.77,15.38c-5.72,0-15.46,0.26-20.08,0.51C619.3,160.17,619.64,153.94,619.64,150.69z M638.61,127.88h5.21   c4.7,0,6.32-3.67,6.32-6.75c0-3.5-2.39-6.58-6.92-6.58h-4.61V127.88z"></path>		<path class="st0" d="M696.53,144.37c0,4.02,0.6,13.33,0.85,16.92c-6.58,0-13.41,0.26-20.16,0.51c0-1.88,0.26-8.29,0.26-11.11v-34   c0-3.5-0.6-12.82-0.85-15.38c4.61,0,15.46-0.17,20.33-0.43c0,1.88-0.43,8.29-0.43,11.45V144.37z"></path>		<path class="st0" d="M707.38,142.4c3.42,2.31,11.45,5.38,18.03,5.38c3.84,0,7.43-1.11,7.43-3.93c0-2.73-2.22-3.59-8.29-4.7   c-13.24-2.65-19.91-8.03-19.91-18.62c0-6.15,2.22-11.02,6.66-14.52c4.44-3.5,10.42-5.3,17.86-5.3c7.95,0,15.46,2.05,20.59,5.04   c-1.96,3.5-2.73,8.46-3.16,11.62l-1.37,0.77c-2.99-1.28-7.52-2.91-12.73-2.91c-4.53,0-8.54,1.03-8.54,4.19s5.98,3.25,12.22,5.3   c10.68,3.42,14.78,10.25,14.78,18.45c0,9.57-8.12,18.71-25.72,18.71c-6.75,0-16.06-1.97-21.27-5.38   C705.76,152.65,706.78,147.78,707.38,142.4z"></path>		<path class="st0" d="M770,117.88h-15.98c0.43-4.87,0.77-10.68,0.77-16.57h50.49c-0.68,5.38-0.86,12.56-0.86,16.57h-15.46v30.33   c0,3.5,0.43,11.53,0.43,13.07c-6.41,0-17.17,0.26-19.82,0.51c0.09-2.82,0.34-7.95,0.34-11.11L770,117.88z"></path>		<path class="st0" d="M842.02,161.8c-0.77-3.16-1.88-6.58-2.99-11.11h-16.32c-0.43,2.05-2.31,9.31-2.56,10.59   c-4.87,0-13.41,0.26-19.39,0.51c6.41-19.39,15.81-48.27,19.73-60.49h22.38c6.49,20.93,13.67,41.26,20.25,59.98   C859.71,161.28,847.49,161.54,842.02,161.8z M830.83,116.69l-4.87,20.42c2.22-0.26,8.37,0,9.74,0L830.83,116.69z"></path>		<path class="st0" d="M885,116.94c0-4.36-0.6-13.5-0.85-15.63h24.35c7.43,0,14.35,0,20.16-0.09c-0.77,4.53-0.85,9.23-0.94,14.35   c-2.56-0.26-11.19-0.26-14.01-0.26c-1.62,0-8.2,0.09-9.65,0.09v9.57c6.15,0,12.47,0,19.39-0.34c0,0.17-0.09,1.11-0.17,2.73   c-0.09,1.62-0.09,3.08-0.09,4.36c0,2.31,0.17,4.53,0.26,6.49c-3.16-0.09-6.41-0.17-10.25-0.17c-3.08,0-6.32,0.09-9.14,0.17v9.4   c3.84,0.09,7.69,0.17,11.45,0.17c4.36,0,8.63-0.09,12.99-0.34c-0.68,4.19-0.77,6.75-0.77,11.62v2.31   c-6.15-0.09-12.22-0.17-18.37-0.17c-8.2,0-16.49,0.26-24.69,0.51c0-1.28,0.34-7.6,0.34-10.76V116.94z"></path>		<path class="st0" d="M936.94,116.69c0-4.36-0.6-13.24-0.85-15.38c3.5,0,19.73-0.43,21.27-0.43c0.43,0.94,1.45,2.99,3.25,6.15   l5.72,10l5.72,10l3.5,6.07l-0.34-16.49c0-4.36-0.6-13.24-0.85-15.29c6.15,0,15.55-0.43,19.65-0.43   c-0.26,2.14-0.43,8.37-0.43,11.36v31.53c0,4.78,0.43,15.55,0.68,17.51c-4.53,0-18.37,0.51-20.42,0.51   c-3.93-8.8-12.81-23.41-18.54-33.06v15.12c0,4.87,0.6,15.38,0.85,17.43c-6.24,0-16.57,0.26-19.56,0.51   c0.09-3.16,0.34-7.95,0.34-11.11V116.69z"></path>		<path class="st0" d="M391.27,192.48c7.52,0,13.76,1.62,17.6,3.76l-2.73,6.66c-0.77,1.96-1.37,4.61-1.96,7.95l-0.68,0.43   c-3.16-2.82-6.66-3.67-10.08-3.67c-3.76,0-7.01,1.28-9.74,3.76c-2.73,2.48-4.1,6.41-4.1,11.79c0,10.51,5.9,15.55,14.1,15.55   c3.76,0,6.84-0.77,10.68-2.82c0.43,2.65,1.02,4.87,1.71,6.66c0.77,1.71,1.71,3.67,2.99,5.98c-5.38,3.84-12.47,5.13-19.31,5.13   c-19.22,0-30.59-11.96-30.59-29.65C359.15,206.15,370.68,192.48,391.27,192.48z"></path>		<path class="st0" d="M441.68,253.65c-17.43,0-29.82-10.17-29.82-30.33c0-17.86,11.11-30.84,30.24-30.84   c17.68,0,29.65,11.02,29.65,31.1C471.75,243.15,459.11,253.65,441.68,253.65z M441.77,206.58c-6.58,0-9.91,6.84-9.91,16.49   c0,10.34,3.42,16.66,9.91,16.66c6.49,0,10.17-6.41,10.17-16.4C451.93,213.67,448.35,206.58,441.77,206.58z"></path>		<path class="st0" d="M481.24,193.08c6.92,0,17.51,0,25.55-0.43l8.63,32.64l7.52-32.21c8.46,0,16.06,0.34,25.63-0.43l0.51,10.76   l0.77,14.69l0.85,15.46c0.34,4.87,0.6,9.14,0.77,12.82l0.43,6.66c-2.05,0-12.65,0.26-19.05,0.51l-0.34-7.86l-0.51-12.05   l-0.34-11.53c-0.09-3.59-0.17-5.89-0.26-6.84l-1.02,3.76l-1.62,5.38l-2.56,8.71l-2.65,8.46l-1.45,4.95h-13.58l-1.79-5.38   c-0.94-2.82-1.97-5.81-3.08-8.89c-1.03-3.08-1.97-5.89-2.91-8.46c-0.85-2.65-1.37-4.1-1.45-4.53l-0.51-1.96   c-0.26-1.11-0.43-1.71-0.51-1.88l-1.54,37.59c-7.26,0-16.83,0.51-19.14,0.51c1.11-15.81,2.48-36.31,3.16-50.06   C481.07,197.95,481.24,193.85,481.24,193.08z"></path>		<path class="st0" d="M560.86,208.46c0-4.36-0.6-13.24-0.85-15.38h27.34c14.87,0,21.96,8.97,21.96,20.16s-8.12,19.65-21.79,19.65   h-7.69v4.02c0,4.61,0.51,14.1,0.77,16.15c-6.66,0-19.39,0.51-20.08,0.51c0.09-2.82,0.34-7.95,0.34-11.11V208.46z M579.83,220.51   h4.7c2.31,0,3.93-0.77,4.87-2.39c0.94-1.62,1.45-3.16,1.45-4.7c0-3.84-2.48-7.09-6.92-7.09h-4.1V220.51z"></path>		<path class="st0" d="M615.11,193.08c5.47,0,13.67,0,18.8-0.43v34.69c0,6.92,2.39,11.11,7.95,11.11c5.13,0,7.52-4.1,7.52-10.85   v-34.52c5.47,0.09,12.99,0,18.45-0.43v36.05c0,9.14-2.39,15.55-7.18,19.31c-4.7,3.67-11.19,5.55-19.31,5.64   c-8.12,0-14.52-1.79-19.22-5.3c-4.7-3.59-7.01-9.91-7.01-18.88V193.08z"></path>		<path class="st0" d="M689.87,209.65h-15.98c0.43-4.87,0.77-10.68,0.77-16.57h50.49c-0.68,5.38-0.85,12.56-0.85,16.57h-15.46v30.33   c0,3.5,0.43,11.53,0.43,13.07c-6.41,0-17.17,0.26-19.82,0.51c0.09-2.82,0.34-7.95,0.34-11.11L689.87,209.65z"></path>		<path class="st0" d="M761.89,253.57c-0.77-3.16-1.88-6.58-2.99-11.11h-16.32c-0.43,2.05-2.31,9.31-2.56,10.59   c-4.87,0-13.41,0.26-19.39,0.51c6.41-19.39,15.8-48.27,19.73-60.49h22.38c6.49,20.93,13.67,41.26,20.25,59.98   C779.57,253.06,767.35,253.31,761.89,253.57z M750.69,208.46l-4.87,20.42c2.22-0.26,8.37,0,9.74,0L750.69,208.46z"></path>		<path class="st0" d="M816.14,192.48c7.52,0,13.76,1.62,17.6,3.76l-2.73,6.66c-0.77,1.96-1.37,4.61-1.96,7.95l-0.68,0.43   c-3.16-2.82-6.66-3.67-10.08-3.67c-3.76,0-7.01,1.28-9.74,3.76c-2.73,2.48-4.1,6.41-4.1,11.79c0,10.51,5.9,15.55,14.1,15.55   c3.76,0,6.84-0.77,10.68-2.82c0.43,2.65,1.02,4.87,1.71,6.66c0.77,1.71,1.71,3.67,2.99,5.98c-5.38,3.84-12.47,5.13-19.31,5.13   c-19.22,0-30.59-11.96-30.59-29.65C784.01,206.15,795.55,192.48,816.14,192.48z"></path>		<path class="st0" d="M860.82,236.14c0,4.02,0.6,13.33,0.86,16.92c-6.58,0-13.41,0.26-20.16,0.51c0-1.88,0.26-8.29,0.26-11.11v-34   c0-3.5-0.6-12.82-0.85-15.38c4.61,0,15.46-0.17,20.33-0.43c0,1.88-0.43,8.29-0.43,11.45V236.14z"></path>		<path class="st0" d="M898.58,253.65c-17.43,0-29.82-10.17-29.82-30.33c0-17.86,11.11-30.84,30.24-30.84   c17.68,0,29.65,11.02,29.65,31.1C928.65,243.15,916.01,253.65,898.58,253.65z M898.67,206.58c-6.58,0-9.91,6.84-9.91,16.49   c0,10.34,3.42,16.66,9.91,16.66c6.49,0,10.17-6.41,10.17-16.4C908.83,213.67,905.25,206.58,898.67,206.58z M893.37,186.67   l4.1-14.01h16.15v1.11l-11.36,12.9H893.37z"></path>		<path class="st0" d="M936.17,208.46c0-4.36-0.6-13.24-0.85-15.38c3.5,0,19.73-0.43,21.27-0.43c0.43,0.94,1.45,2.99,3.25,6.15   l5.72,10l5.72,10l3.5,6.07l-0.34-16.49c0-4.36-0.6-13.24-0.85-15.29c6.15,0,15.55-0.43,19.65-0.43   c-0.26,2.14-0.43,8.37-0.43,11.36v31.53c0,4.78,0.43,15.55,0.68,17.51c-4.53,0-18.37,0.51-20.42,0.51   c-3.93-8.8-12.81-23.41-18.54-33.06v15.12c0,4.87,0.6,15.38,0.85,17.43c-6.24,0-16.57,0.26-19.56,0.51   c0.09-3.16,0.34-7.95,0.34-11.11V208.46z"></path>		<path class="st0" d="M1048.52,192.48c7.52,0,13.76,1.62,17.6,3.76l-2.73,6.66c-0.77,1.96-1.37,4.61-1.96,7.95l-0.68,0.43   c-3.16-2.82-6.66-3.67-10.08-3.67c-3.76,0-7.01,1.28-9.74,3.76c-2.73,2.48-4.1,6.41-4.1,11.79c0,10.51,5.9,15.55,14.1,15.55   c3.76,0,6.84-0.77,10.68-2.82c0.43,2.65,1.02,4.87,1.71,6.66c0.77,1.71,1.71,3.67,2.99,5.98c-5.38,3.84-12.47,5.13-19.31,5.13   c-19.22,0-30.59-11.96-30.59-29.65C1016.39,206.15,1027.93,192.48,1048.52,192.48z"></path>		<path class="st0" d="M1070.82,245.28c0-4.87,4.1-8.12,8.97-8.12c4.7,0,8.89,3.25,8.89,8.12c0,2.39-0.94,4.36-2.73,5.98   c-1.79,1.62-3.84,2.39-6.15,2.39C1074.92,253.65,1070.82,250.07,1070.82,245.28z"></path>		<path class="st0" d="M1134.8,253.57c-0.77-3.16-1.88-6.58-2.99-11.11h-16.32c-0.43,2.05-2.31,9.31-2.56,10.59   c-4.87,0-13.41,0.26-19.39,0.51c6.41-19.39,15.81-48.27,19.73-60.49h22.38c6.49,20.93,13.67,41.26,20.25,59.98   C1152.49,253.06,1140.27,253.31,1134.8,253.57z M1123.61,208.46l-4.87,20.42c2.22-0.26,8.37,0,9.74,0L1123.61,208.46z"></path>	</g>	<g>		<g>							<ellipse transform="matrix(0.7071 -0.7071 0.7071 0.7071 -68.7919 188.2858)" class="st1" cx="192.89" cy="177.18" rx="142.34" ry="142.34"></ellipse>			<path class="st2" d="M228.73,40.6c1.71,0.65,3.45,1.07,5.23,1.4c0.28,0.05,0.57,0.07,0.85,0.05c0.11-0.01,0.29-0.15,0.31-0.25    c0.03-0.19,0.04-0.46-0.06-0.59c-6.68-2.07-13.57-3.66-20.63-4.73c3.24,1.42,6.54,2.64,10.09,3.13    C225.94,39.78,227.39,40.09,228.73,40.6z M249.72,66.12c0.18,0.11,0.4,0.19,0.61,0.22c0.75,0.11,1.37,0.42,1.81,1.07    c0.16,0.23,0.38,0.45,0.63,0.59c2.15,1.22,4.34,2.35,6.82,2.76c0.98,0.16,1.51-0.19,1.74-1.16c0.1-0.42,0.11-0.86,0.12-0.94    c0.06-1.79-0.23-3.24-1.35-4.11c-1.52-1.21-3.24-2.29-5.37-1.25c-0.26,0.13-0.55,0.2-0.82,0.28c-0.58,0.17-1.15,0.21-1.65-0.22    c-1-0.88-1.86-0.44-2.71,0.25C248.65,64.34,248.72,65.52,249.72,66.12z M257.09,50.12c0.01,0.27,0.17,0.53,0.36,0.75    c0.38,0.44,0.73,0.91,1.18,1.27c1.19,0.95,2.41,1.86,3.64,2.76c3.38,2.5,6.78,4.98,10.17,7.47c2.66,1.96,4.95,4.25,6.47,7.23    c0.33,0.64,0.79,1.22,1.18,1.83c1,1.54,2.34,2.75,3.81,3.83c0.76,0.56,1.53,1.13,2.14,1.83c1.15,1.3,2.51,2.19,4.24,2.41    c1.11,0.14,1.78,0.79,2.37,1.7c1.23,1.88,2.56,3.7,3.85,5.54c1.34,1.91,2.37,3.95,2.9,6.23c-0.79-0.61-1.59-1.21-2.39-1.82    c-2.54-1.94-5.08-3.87-7.25-6.24c-0.49-0.53-1.01-1.07-1.6-1.48c-1.44-1-2.81-2.04-3.81-3.51c-0.53-0.78-1.29-0.89-2.12-0.61    c-0.54,0.18-1.15,0.29-1.44,0.89c-0.46,0.94-0.21,2.19,0.72,2.66c1.87,0.94,2.71,2.74,4.07,4.42c-1.08,0.89-0.87,1.89-0.2,2.9    c0.11,0.17,0.17,0.42,0.16,0.62c-0.06,1.48,0.7,2.62,1.46,3.79c0.51,0.78,0.94,1.63,1.35,2.47c0.32,0.66,0.82,1,1.52,1.05    c0.97,0.08,1.81-0.05,2.59-0.81c0.84-0.82,1.72-0.74,2.46,0.09c0.32,0.36,0.52,0.86,0.63,1.33c0.13,0.56,0.07,1.16,0.16,1.73    c0.09,0.61,0.79,0.96,1.34,0.67c0.38-0.2,0.69-0.52,1.07-0.74c0.62-0.36,1.25-0.7,1.9-1.01c0.1-0.05,0.32,0.17,0.57,0.32    c-0.46,0.47-0.85,0.87-1.18,1.2c0.08,1.28,0.22,2.43,0.22,3.59c0,1.05,0.35,1.79,1.33,2.27c1.48,0.72,2.56,1.89,3.35,3.32    c0.95,1.7,1.87,3.43,2.79,5.14c0.02,0.04-0.04,0.13-0.09,0.27c-0.25,0-0.53,0-0.81,0c-1.09-0.02-2.18-0.1-3.27-0.05    c-1.64,0.07-2.45,0.9-2.37,2.47c0.03,0.7,0.25,1.42,0.53,2.08c0.76,1.81,1.61,3.57,2.38,5.37c0.54,1.27,0.98,2.58,1.5,3.86    c0.76,1.85,1.87,3.42,3.59,4.51c0.31,0.19,0.57,0.45,0.89,0.63c0.88,0.5,1.08,1.28,1.08,2.21c0.01,1.2-0.43,2.27-0.84,3.36    c-0.33,0.88-0.82,1.77-0.87,2.68c-0.13,2.31-0.36,4.64,0.19,6.94c0.25,1.05,0.12,1.98-0.53,2.88c-0.85,1.18-1.66,2.39-2.4,3.64    c-0.39,0.67-0.83,1.45-0.84,2.19c-0.01,1.64-0.6,3.13-0.86,4.69c-0.21,1.25-0.66,2.39-1.39,3.4c-0.74,1.04-1.18,2.18-1.33,3.41    c-0.15,1.22-0.16,2.46-0.23,3.69c-0.06,1.08,0.19,2.01,1.25,2.57c0.73,0.38,0.95,1.06,0.95,1.83c0.01,1.09-0.02,2.18,0.03,3.27    c0.06,1.48-0.23,2.88-0.8,4.25c-0.22,0.53-0.45,1.1-0.48,1.66c-0.18,3.4,0.25,6.66,2.32,9.52c0.64,0.88,1.32,1.77,1.53,2.86    c0.27,1.4,1.01,2.53,1.78,3.69c0.56,0.84,1.19,1.74,1.36,2.69c0.34,1.92,1.69,2.99,2.98,4.14c0.63,0.56,1.27,0.5,1.98-0.04    c0.23-0.18,0.43-0.39,0.64-0.59c1.21-1.13,2.55-1.88,4.29-1.72c1.14,0.1,2.11-0.36,3-1.07c0.55-0.44,1.19-0.77,1.75-1.12    c0.75,0.58,1.34,1.12,2,1.54c0.81,0.51,0.97,1.15,0.74,2.04c-0.81,3.01-1.56,6.04-2.34,9.06c-0.13,0.49-0.28,0.98-0.49,1.44    c-0.81,1.73-1.24,3.56-1.65,5.4c-1.07,4.85-2.75,9.48-5,13.89c-1.05,2.06-2.34,4.01-3.55,5.99c-2.09,3.4-4.17,6.81-6.33,10.16    c-1.46,2.25-2.96,4.49-4.61,6.6c-2.32,2.97-4.86,5.76-7.19,8.72c-1.36,1.72-2.88,3.22-4.58,4.61c-1.57,1.28-2.93,2.82-4.35,4.28    c-0.5,0.51-0.51,1.06-0.15,1.33c0.4,0.29,0.87,0.25,1.4-0.12c0.12-0.08,0.23-0.18,0.34-0.27c2.03-1.87,4.12-3.67,6.06-5.62    c3.01-3.04,6.24-5.87,8.89-9.27c1.34-1.71,2.95-3.2,4.3-4.9c3.34-4.21,6.36-8.65,9.17-13.23c0.57-0.94,1.19-1.85,1.76-2.79    c10.7-19.99,16.77-42.82,16.77-67.08C335.22,121.67,303.44,73.59,257.09,50.12z M266.73,232.14c-1.8-0.53-3.2-1.68-4.62-2.8    c-0.66-0.51-1.34-0.83-2.14-0.98c-1.57-0.29-3.14-0.59-4.69-0.95c-0.94-0.22-1.85-0.35-2.79-0.05c-0.89,0.29-1.57-0.01-1.98-0.86    c-0.49-1-1.34-1.45-2.4-1.68c-0.99-0.21-2-0.44-2.92-0.84c-1.33-0.59-2.66-1.14-4.09-1.45c-0.46-0.1-0.87-0.42-1.27-0.62    c0.5-2.07,0.52-2.09-0.2-3.91c-0.53-1.35-1.15-2.67-1.66-4.02c-0.28-0.74-0.74-1.23-1.45-1.53c-1.67-0.71-3.34-1.42-5.01-2.11    c-1.11-0.46-2.26-0.57-3.41-0.21c-0.9,0.29-1.71,0.18-2.52-0.23c-0.26-0.13-0.53-0.27-0.8-0.33c-1.3-0.28-2.15-1.11-2.86-2.18    c-0.4-0.6-0.8-1.25-1.36-1.68c-1.37-1.06-2.73-2.19-4.44-2.68c-0.87-0.25-1.26-0.8-1.39-1.72c-0.16-1.2-0.68-1.62-1.83-1.77    c-0.8-0.1-1.6-0.07-2.34,0.3c-0.65,0.32-1.32,0.61-1.96,0.96c-0.88,0.47-1.73,0.58-2.71,0.21c-0.94-0.35-1.96-0.5-2.95-0.72    c-1.48-0.33-2.98-0.54-4.15-1.69c-0.91-0.89-2.02-1.06-3.22-0.49c-0.39,0.19-0.82,0.31-1.24,0.39c-0.32,0.06-0.66,0.01-1.16,0.01    c0.21-0.5,0.39-0.81,0.48-1.15c0.15-0.57-0.06-1.1-0.54-1.28c-1.21-0.45-2.44-0.62-3.47,0.35c-0.66,0.63-1.39,0.98-2.25,1.22    c-1.11,0.32-2.15,0.88-3.27,1.19c-1.39,0.39-2.27,1.15-2.67,2.56c-0.35,1.23-1.2,2.12-2.3,2.72c-2.24-1.44-2.24-1.39-5.08-1.56    c-2.1-0.12-4.16-0.56-6.19-1.11c-0.74-0.2-1.25-0.66-1.63-1.34c-0.62-1.1-0.95-2.24-0.94-3.53c0-1.22-0.09-2.46-0.28-3.67    c-0.15-0.92-0.7-1.78-0.79-2.7c-0.14-1.41-0.98-2.06-2.15-2.43c-0.68-0.21-1.41-0.3-2.12-0.37c-0.79-0.09-1.61,0-2.38-0.17    c-0.66-0.14-1.25-0.19-1.91,0c-0.75,0.21-1.55,0.33-2.33-0.22c0.69-4.05,2.35-7.77,3.61-11.64c-0.41-1.04-1.17-1.56-2.33-1.57    c-2.74,0-4.97,0.85-6.15,3.55c-0.14,0.33-0.31,0.66-0.5,0.97c-0.76,1.29-1.79,2.27-3.24,2.73c-0.76,0.24-1.57,0.34-2.3,0.65    c-1.01,0.43-1.88,0.17-2.66-0.4c-1.16-0.85-2.28-1.73-3.12-2.98c-1.11-1.65-1.9-3.43-2.53-5.28c-0.72-2.11-0.79-4.26,0.11-6.37    c0.51-1.21,0.79-2.46,0.86-3.79c0.07-1.22,0.38-2.43,0.61-3.64c0.19-0.99,0.75-1.69,1.68-2.12c0.99-0.46,1.97-0.94,2.89-1.52    c1.37-0.88,2.86-1.04,4.4-0.84c1.29,0.17,2.57,0.43,3.84,0.71c1.09,0.24,2,0.11,2.7-0.84c0.3-0.4,0.67-0.76,0.96-1.08    c0.78-0.19,1.48-0.41,2.19-0.5c0.71-0.09,1.48-0.19,2.15,0c1.83,0.5,3.67,0.83,5.58,0.79c0.4-0.01,0.97,0.14,1.17,0.42    c1.05,1.45,2.49,2.67,2.75,4.6c0.2,1.47,0.96,2.7,1.9,3.83c0.74,0.89,1.62,1.66,1.96,2.84c0.07,0.24,0.38,0.43,0.61,0.59    c0.34,0.23,0.75,0.2,0.98-0.11c0.69-0.94,1.44-1.93,1.14-3.16c-0.47-1.89-0.78-3.83-1.74-5.59c-1.24-2.25-1.23-4.57-0.05-6.87    c0.26-0.52,0.53-1.04,0.77-1.56c0.35-0.76,0.88-1.3,1.65-1.65c2.19-1.01,4.02-2.56,5.9-4.04c0.89-0.7,1.71-1.53,2.92-1.79    c1.14-0.25,1.51-1,1.14-2.11c-0.21-0.62-0.52-1.2-0.82-1.78c-0.54-1.03-0.64-2.06-0.07-3.06c2.37-1.17,2.37-1.17,3.97-3.54    c0.28-0.42,0.56-0.85,0.88-1.24c0.95-1.14,2.06-2.06,3.58-2.29c2.02-0.31,2.91-1.74,3.49-3.47c0.18-0.55,0.32-1.12,0.42-1.69    c0.15-0.88,0.62-1.43,1.46-1.72c1.51-0.53,3-1.1,4.51-1.62c0.31-0.11,0.68-0.08,1.1-0.13c0.12,0.44,0.2,0.79,0.32,1.12    c0.4,1.12,1.24,1.59,2.36,1.31c0.35-0.09,0.69-0.24,1.01-0.4c2.21-1.1,4.42-2.21,6.63-3.31c1.34-0.67,2.27-1.8,3.2-2.91    c0.21-0.25,0.31-0.66,0.35-1c0.12-1.1-0.68-1.83-1.76-1.55c-0.69,0.18-1.38,0.46-2.01,0.81c-3.24,1.79-3.24,1.8-5.89-0.86    c-0.09-0.09-0.1-0.27-0.08-0.23c0.15-1.16,0.28-2.16,0.41-3.16c0.05-0.35,0.04-0.74,0.64-0.89c0.22,0.13,0.51,0.32,0.82,0.49    c1.25,0.69,1.98,0.62,2.95-0.27c1.03-0.93,0.99-1.42-0.17-2.39c-0.08-0.07-0.11-0.2-0.22-0.41c2.28,0.09,4.14-0.81,5.8-2.18    c0.22-0.19,0.44-0.39,0.68-0.55c0.68-0.43,1.4-0.74,2.19-0.6c0.52,0.59,0.36,1.15,0.09,1.68c-0.66,1.29-1.32,2.58-2.05,3.83    c-0.41,0.7-0.84,1.36-0.89,2.19c-0.1,1.66,0.49,2.38,2.04,2.41c1.16,0.02,2.33,0.06,3.49,0.02c1.07-0.04,1.99,0.26,2.85,0.87    c0.53,0.38,1.08,0.74,1.67,1.02c1.19,0.56,2.37-0.16,2.51-1.48c0.11-1.06-1.55-4.83-2.42-5.44c-0.29-0.21-0.62-0.38-0.94-0.54    c-0.26-0.13-0.52-0.26-0.8-0.35c-0.69-0.25-1.06-0.72-1.1-1.46c-0.01-0.29-0.04-0.58-0.06-0.87c-0.08-1.15-0.65-1.89-1.8-2.15    c-0.25-0.06-0.49-0.18-0.74-0.27c0.13-0.26,0.15-0.43,0.25-0.51c0.85-0.65,0.64-1.53,0.57-2.4c-0.07-0.87-0.43-1.48-1.17-1.96    c-0.97-0.63-1.88-1.34-2.87-2.05c-0.01-0.17-0.03-0.38-0.05-0.59c-0.08-0.99-0.19-1.23-1.06-1.33c-1.8-0.21-3.22-1.28-4.79-2.01    c-0.64-0.3-1-0.85-1.18-1.5c-0.3-1.1-0.99-1.92-1.78-2.68c-1.51-1.47-2.97-2.97-4.08-4.8c-0.44-0.72-1.17-1.28-1.82-1.85    c-0.36-0.32-0.86-0.27-1.21,0.03c-0.38,0.32-0.71,0.72-0.99,1.14c-0.49,0.72-0.89,1.5-1.39,2.21c-0.28,0.39-0.7,0.67-0.99,0.94    c-0.3-0.08-0.45-0.08-0.57-0.16c-1.89-1.19-2.39-0.82-2.43-3.4c-0.01-0.79-0.48-1.34-1.08-1.8c-0.57-0.44-1.12-0.91-1.68-1.37    c-0.95-0.78-1.88-1.59-2.87-2.33c-0.39-0.29-0.9-0.57-1.37-0.6c-2.02-0.12-4.06-0.11-6.06-0.52c-0.14-0.03-0.29-0.01-0.43,0.02    c-0.93,0.19-1.84,0.27-2.8,0.09c-0.45-0.08-0.99,0.16-1.45,0.35c-0.8,0.32-1.01,0.86-0.9,1.99c0.08,0.79,0.37,1.09,1.23,1.27    c0.69,0.15,1.48-0.05,2.11,0.62c0.35,0.93,0.12,1.91-0.05,2.92c-0.31,1.95-0.49,3.91,0.73,5.68c0.5,0.72,0.43,1.49,0.16,2.29    c-0.46,1.38-1.24,2.37-2.68,2.91c-1.54,0.58-1.68,1.02-1.3,2.69c0.18,0.78,0.44,1.54,0.56,2.33c0.19,1.23,0.21,2.46-0.58,3.56    c-0.74,1.03-1.56,1.08-2.24,0.03c-0.99-1.54-1.86-3.13-1.65-5.07c0.04-0.36,0.01-0.73,0-1.09c-0.03-2.41-0.05-2.48-2.46-2.95    c-3.05-0.6-5.79-1.82-8.15-3.87c-0.8-0.69-1.71-1.06-2.78-1.08c-0.71-0.02-1.46,0.1-2.24-0.49c-0.47-1.45-1.06-3-1.08-4.71    c-0.01-0.83,0.24-1.51,0.7-2.22c1.1-1.71,2.57-2.95,4.33-3.87c1.05-0.55,1.98-1.22,2.62-2.23c0.33-0.53,0.81-0.82,1.39-0.97    c0.76-0.2,1.52-0.4,2.38-0.62c0.27,0.34,0.46,0.66,0.74,0.89c1.24,1.06,2.63,1.5,4.22,0.85c0.13-0.05,0.28-0.08,0.42-0.11    c0.99-0.21,1.94-0.47,3-0.16c0.59,0.17,1.32,0.1,1.92-0.09c1.2-0.37,1.42-1.75,0.44-2.52c-0.8-0.62-1.67-1.15-2.48-1.76    c-0.31-0.24-0.52-0.6-0.86-1c0.62-0.5,1.17-0.85,1.61-1.32c0.49-0.52,1.09-1.07,1.26-1.72c0.43-1.6,1.05-3.18,1.05-4.88    c0-0.34,0.13-0.69,0.2-1.08c1.8-0.19,3.38,0.3,4.92,0.93c0.32,0.13,0.62,0.4,0.55,0.84c-0.63,0.48-1.27,0.94-1.86,1.45    c-0.46,0.4-0.73,0.91-0.44,1.55c0.26,0.57,0.67,0.94,1.32,0.99c1.48,0.12,2.94,0.2,3.82-1.36c0.03-0.06,0.11-0.12,0.17-0.12    c0.21-0.02,0.45-0.08,0.61,0c0.3,0.16,0.35,0.5,0.16,0.74c-0.78,0.96-1.63,1.85-2.37,2.83c-0.58,0.76-1.25,1.16-2.21,1.16    c-0.79,0-1.6-0.03-2.34,0.38c-1.01,0.56-1.13,2.13-0.14,2.72c0.47,0.28,1.08,0.41,1.64,0.45c0.41,0.03,0.86-0.13,1.27-0.28    c1.35-0.5,2.58-0.17,3.73,0.55c0.61,0.38,1.21,0.81,1.74,1.29c2.45,2.2,5.36,3.39,8.52,4.09c0.8,0.18,1.42,0.1,1.88-0.64    c0.19-0.3,0.4-0.68,0.69-0.8c1.06-0.43,1.18-1.35,1.42-2.28c0.2-0.81-0.02-1.4-0.56-1.97c-0.47-0.49-1.07-0.91-1.43-1.84    c0.52,0.18,0.77,0.3,1.04,0.36c1.23,0.29,1.59,0.2,2.08-0.91c0.4-0.91,1.12-1.5,1.74-2.2c1.13-1.28,0.89-2.37-0.68-3.05    c-0.4-0.17-0.82-0.28-1.23-0.45c-1.67-0.7-3.34-1.41-5.01-2.13c-0.94-0.4-1.58-1.03-1.52-2.14c0.06-1.18-0.63-1.8-1.6-2.35    c-2.53-1.42-4.99-2.95-7.51-4.39c-0.74-0.42-1.27-0.92-1.49-1.76c-0.07-0.26-0.3-0.47-0.47-0.73c-0.54-0.05-1.04-0.08-1.54-0.15    c-0.46-0.07-1,0.22-1.38-0.26c0.05-0.11,0.06-0.2,0.1-0.24c0.91-0.79,2.1-1.39,1.95-2.9c-0.01-0.12,0.12-0.26,0.2-0.38    c0.68-1.03,1.33-2.07,2.04-3.08c0.19-0.28,0.54-0.44,0.8-0.65c0.81,0.49,1.55,0.92,2.26,1.4c0.29,0.2,0.56,0.49,0.72,0.8    c0.76,1.5,1.99,2.01,3.6,1.82c0.36-0.04,0.73-0.03,1.09,0.02c1.51,0.22,3.07,0.36,4.35,1.26c2.44,1.72,4.73,3.64,6.45,6.1    c0.72,1.04,1.54,1.69,2.83,1.68c0.09,0,0.18,0.2,0.34,0.39c-1.05,0.86-0.81,1.97-0.28,2.93c0.53,0.97,1.59,1.21,2.66,1.16    c0.43-0.02,0.85-0.17,1.29-0.21c0.19-0.02,0.4,0.08,0.68,0.14c-0.13,0.24-0.22,0.42-0.32,0.59c-0.7,1.13-1.27,2.37-0.78,3.67    c0.56,1.49,1.39,2.86,2.89,3.7c1.08,0.6,2.07,1.35,3.12,1.99c0.68,0.41,1.08,0.96,1.05,1.77c-0.04,1.14,0.6,1.9,1.42,2.56    c1.35,1.09,2.79,2.1,4.05,3.28c1.28,1.2,2.77,1.82,4.44,2.15c1.23,0.24,2.37,0.69,3.42,1.36c0.31,0.19,0.6,0.42,0.93,0.57    c0.79,0.37,1.55,0.33,2.23-0.27c0.68-0.59,0.85-1.32,0.51-2.16c-0.35-0.88-0.65-1.78-1.05-2.63c-0.46-0.97-0.57-1.93-0.28-2.96    c0.38-1.37,0.3-2.7-0.24-4.05c-0.43-1.05-0.28-1.35,0.92-1.71c1.18-0.35,1.92-1.05,2.11-2.22c0.24-1.44,1.06-2.51,1.94-3.59    c0.51-0.62,0.97-1.27,1.44-1.91c0.42-0.56,0.52-1.2,0.33-1.86c-0.55-2-1.46-3.78-3.19-5.05c-1.05-0.78-2.18-1.5-3.06-2.44    c-1.96-2.1-4.27-3.7-6.65-5.25c-0.73-0.47-1.49-0.89-2.23-1.36c-1.8-1.12-3.67-2.05-5.79-2.43c-0.64-0.12-1.3-0.29-1.86-0.59    c-2.7-1.45-5.61-2.38-8.45-3.49c-1.06-0.41-2.12-0.84-3.21-1.16c-4.65-0.47-9.37-0.72-14.14-0.74c-0.84,0.15-1.7,0.21-2.57,0.02    c-1.31,0.02-2.61,0.05-3.91,0.11c-1.17,0.2-2.33,0.43-3.49,0.69c-0.84,0.19-1.64,0.58-2.44,0.91c-1.14,0.47-2.24,1.04-3.4,1.44    c-0.85,0.29-1.3,0.79-1.42,1.63c-0.17-0.11-0.33-0.23-0.49-0.35c-1.05-0.81-2.14-0.8-3.24-0.12c-0.89,0.56-1.76,0.86-2.87,0.5    c-0.98-0.32-1.98-0.1-2.89,0.54c-0.89,0.63-1.85,1.1-3.05,0.8c-0.45-0.11-1,0.08-1.48,0.2c-0.92,0.22-1.82,0.48-2.73,0.75    c-1.18,0.35-2.37,0.68-3.53,1.12c-0.85,0.32-1.09,0.87-0.85,1.74c0.29,1.04,0.64,2.07,0.91,2.9c0.6,0.75,1.56,0.35,2.03,0.99    c-1.92,1.95-3.32,1.73-4.34-0.6c-0.03-0.07-0.04-0.14-0.07-0.21c-0.7-1.6-1.81-2.21-3.47-1.7c-1.17,0.36-2.28,0.92-3.39,1.45    c-0.91,0.44-1.77,0.99-2.66,1.47c-0.77,0.41-1.55,0.8-2.33,1.19c-0.48,0.24-0.82,0.58-0.97,1.11c-0.1,0.35-0.23,0.69-0.36,1.02    c-0.52,1.3-0.22,1.79,1.11,1.63c0.71-0.09,1.4-0.36,2.11-0.52c0.32-0.07,0.67-0.06,1.01-0.09c0.03,1.17,0.05,1.25-0.64,1.48    c-1.02,0.34-1.79,0.91-2.29,1.87c-0.08,0.16-0.34,0.22-0.55,0.35c-0.52-0.29-1.02-0.58-1.52-0.85c-1.02-0.54-2.09-0.99-2.76-2.04    c-0.34-0.54-0.96-0.58-1.58-0.47c-1.5,0.28-3.01,0.48-4.49,0.84c-2.26,0.56-4.32,0.41-6.06-1.32c-0.3-0.3-0.65-0.48-1.02-0.57    c-11.82,6.59-22.6,14.81-32.04,24.37c0.47,0.23,0.68,0.21,1.16,0c0.93-0.41,1.83-0.9,2.74-1.34c0.37-0.18,0.75-0.32,1.29-0.55    c0.16,1.35,0.79,2.29,1.55,3.18c0.78,0.92,1.1,1.99,1.06,3.22c-0.06,1.67-0.06,3.34,0,5.01c0.04,1.34-0.17,2.62-0.73,3.81    c-0.51,1.09-0.69,2.21-0.61,3.39c0.07,1.08,0.21,2.16,0.29,3.24c0.04,0.49,0.01,0.99,0.01,1.54c-0.3,0.13-0.56,0.25-0.82,0.34    c-1.29,0.46-1.6,0.93-1.29,2.24c0.2,0.85,0.51,1.67,0.79,2.49c0.48,1.42,0.5,2.83,0.17,4.29c-0.49,2.21-1.07,4.36-2.24,6.33    c-0.55,0.94-0.98,1.95-1.48,2.92c-1.01,1.96-1.55,4.09-1.8,6.24c-0.17,1.45-0.35,2.87-0.73,4.28c-0.37,1.38-0.33,2.7,0.26,4.04    c0.38,0.85,0.73,1.79,0.76,2.7c0.06,1.7,0.53,3.28,0.88,4.91c0.24,1.12,0.81,1.79,1.81,2.25c0.58,0.27,1.31,0.58,1.58,1.09    c0.82,1.53,1.7,3.09,1.76,4.87c0.05,1.56,0.4,3.01,1.04,4.41c0.52,1.13,0.87,2.31,0.78,3.58c-0.09,1.38,0.4,2.52,1.28,3.59    c0.59,0.71,1.13,1.54,1.44,2.41c0.83,2.31,2.27,4.18,3.86,5.98c0.57,0.64,1.03,1.39,1.46,2.14c0.66,1.18,1.46,1.31,2.34,0.32    c0.54-0.6,0.7-1.3,0.42-2.02c-0.44-1.15-0.95-2.27-1.47-3.39c-0.64-1.38-1.4-2.71-1.96-4.11c-0.39-0.97-0.75-1.98-0.92-3.42    c1.39,1.6,2.45,2.97,3.21,4.52c1.55,3.14,3.44,6.05,5.34,8.97c0.44,0.68,0.87,1.39,0.8,2.22c-0.16,2.1,0.95,3.76,1.83,5.5    c0.16,0.32,0.38,0.64,0.66,0.85c1.51,1.12,2.97,2.35,4.59,3.28c2.7,1.56,5.5,2.94,8.27,4.39c1.29,0.68,2.66,1.13,4.09,1.45    c2.19,0.48,2.18,0.51,3.73-1.12c2.21,0.57,3.15,1.08,4.78,2.77c2.21,2.31,4.81,4.06,7.9,4.8c2.01,0.48,3.33,1.67,4.5,3.17    c0.45,0.57,0.79,1.22,1.21,1.81c0.38,0.53,0.7,1.15,1.2,1.54c1.95,1.5,3.88,3.06,5.98,4.33c2.19,1.32,4.74,1.77,7.22,2.34    c0.54,0.12,1-0.05,1.36-0.48c0.18-0.22,0.39-0.43,0.59-0.65c0.39-0.41,0.87-0.58,1.39-0.37c0.65,0.27,1.46,0.13,2.07,0.85    c-0.57,1.45-0.37,2.91,0.23,4.36c0.31,0.76,0.21,1.55,0.06,2.36c-0.31,1.73-1.36,3.01-2.46,4.27c-1.43,1.63-2.92,3.22-4.35,4.86    c-0.32,0.37-0.64,0.85-0.7,1.31c-0.2,1.66-0.37,3.36,1.28,4.53c0.08,0.06,0.06,0.27,0.12,0.56c-0.43,0.36-0.93,0.77-1.41,1.18    c-0.58,0.49-1.01,1.11-0.91,1.89c0.17,1.28,0.31,2.55,1.13,3.68c1.03,1.43,2.21,2.7,3.49,3.87c1.31,1.2,2.35,2.56,2.86,4.28    c0.32,1.07,0.93,1.96,1.58,2.84c1.2,1.64,2.44,3.25,3.68,4.86c0.31,0.4,0.63,0.81,1.02,1.12c0.97,0.76,1.94,1.54,3,2.16    c1.76,1.03,3.35,2.28,5,3.46c1.44,1.03,2.07,2.25,1.71,3.89c-0.44,2.02-0.38,4.04-0.37,6.07c0.01,1.11-0.22,2.16-0.59,3.19    c-0.5,1.36-0.97,2.74-1.56,4.07c-0.42,0.96-0.57,1.93-0.56,2.96c0.02,1.53-0.01,3.05,0,4.58c0.01,0.89-0.16,1.73-0.58,2.52    c-0.37,0.71-0.74,1.42-1.06,2.15c-0.23,0.53-0.53,1.09-0.54,1.64c-0.03,1.69-0.41,3.3-0.84,4.92c-0.11,0.41-0.18,0.88-0.1,1.29    c0.19,0.91,0.68,1.78,0.7,2.68c0.03,0.9-0.79,1.66-0.75,2.67c0.07,1.67-0.01,3.34,0.04,5.01c0.01,0.49,0.08,1.07,0.35,1.44    c1.18,1.6,2.58,3.03,4.55,3.54c0.95,0.25,2.02,0.16,3.01,0.05c0.81-0.09,1.05-0.95,0.58-1.67c-0.12-0.18-0.31-0.31-0.42-0.5    c-0.71-1.2-0.49-2.37,0.6-3.25c0.57-0.45,1.16-0.88,1.72-1.33c0.94-0.74,1-0.99,0.57-2.24c-0.4-1.16-0.41-1.35,0.48-2.05    c1.05-0.82,1.97-1.7,2.54-2.93c0.14-0.31,0.4-0.67,0.69-0.8c1.35-0.59,2.15-1.69,2.83-2.91c0.31-0.55,0.8-0.82,1.44-0.83    c0.58-0.01,1.17,0.03,1.74-0.04c2.7-0.34,5.11-1.24,6.42-3.85c0.34-0.67,0.41-1.47,0.63-2.3c0.66-0.04,1.31-0.13,1.95-0.1    c1.52,0.07,2.8-0.39,4.01-1.36c2.15-1.72,4.43-3.28,6.6-4.97c1.08-0.84,2.31-1.52,3.11-2.7c1.18-1.74,2.37-3.48,3.56-5.21    c0.29-0.41,0.54-0.91,0.93-1.18c2.28-1.59,4.71-2.81,7.51-3.27c1.2-0.2,2.48-0.43,3.53-1.01c1.51-0.83,2.92-1.91,4.02-3.3    c1.93-2.44,3.99-4.78,5.69-7.42c0.95-1.48,1.78-2.98,2.1-4.73c0.09-0.49,0.17-1.06,0.46-1.42c1.24-1.51,2.26-3.27,3.89-4.38    c2.08-1.43,3.7-3.29,5.1-5.31c1.19-1.72,1.95-3.7,1.99-5.89C268.4,233.35,267.92,232.49,266.73,232.14z M204.66,105.77    c-0.91,0.15-1.79,0.29-2.67,0.43C203.55,104.83,203.9,104.8,204.66,105.77z M177.39,39.81c-0.63,0.22-0.67,0.23-1.14-0.08    C176.54,39.75,176.85,39.77,177.39,39.81z M174.96,48.44c0.13-0.04,0.32,0.15,0.71,0.35c-0.45,0.23-0.72,0.4-1.01,0.47    c-0.07,0.02-0.22-0.27-0.34-0.42C174.54,48.7,174.73,48.5,174.96,48.44z M171.3,51.91c-0.23,0.67-0.31,0.93-0.41,1.18    c-0.24,0.6-0.12,1.12,0.26,1.62c0.61,0.8,1.24,1.59,1.83,2.41c0.88,1.23,0.85,1.69-0.14,2.85c-0.27,0.31-0.57,0.59-0.95,0.97    c-0.14-0.35-0.27-0.53-0.27-0.71c0-0.96-0.38-1.67-1.26-2.09c-1.13-0.53-1.46-1.45-1.48-2.64c-0.01-0.68-0.31-1.35-0.52-2.19    C169.04,52.83,169.94,52.42,171.3,51.91z M164.37,47.42c0.85-0.07,1.22-0.66,1.75-1.25c1.18,0.5,2.16,0.93,3.1,1.33    c0.13,0.71-0.22,0.86-0.72,0.85c-0.14,0-0.28-0.08-0.4-0.15c-0.99-0.61-1.93-0.38-2.87,0.13c-0.75,0.41-1.52,0.79-2.38,1.23    c-0.77-1.03-1.77-1.5-3.02-1.57C161.34,47.78,162.85,47.54,164.37,47.42z M159.04,54.09c0.1-0.84,0.65-1.4,1.54-1.72    c0.85,0.46,1.7,0.95,2.36,1.67c-0.3,2.34-0.85,2.88-3.78,3.6C158.83,56.37,158.91,55.22,159.04,54.09z M154.97,59.69    c0.54,0.04,1.09,0.01,2.07,0.01c-0.56,0.4-0.75,0.64-0.97,0.67c-1.04,0.15-1.32,0.05-3.06-0.99    C153.93,59.53,154.45,59.65,154.97,59.69z M144.52,59.47c0.6,0.25,1.25,0.52,1.89,0.78c-1.07,0.28-1.35,0.31-1.99-0.03    C144.15,60.07,144.16,59.75,144.52,59.47z M104.16,151.98c-1.02-0.55-1.17-1.31-0.97-2.21c0.02-0.1,0.18-0.22,0.3-0.24    c0.12-0.02,0.3,0.04,0.37,0.13C104.42,150.32,104.38,151.07,104.16,151.98z M175.92,182.09c0.17,0.37,0.24,0.84,0.51,1.07    c0.77,0.64,1.61,1.21,2.47,1.72c0.34,0.2,0.82,0.25,1.23,0.24c0.54-0.01,0.86-0.63,0.65-1.11    C180.09,182.42,178.65,181.05,175.92,182.09z M204.31,180.06c-1.29,0.16-2.57,0.36-3.84,0.63c-0.96,0.21-1.84,0.15-2.74-0.25    c-2.35-1.05-4.84-1.37-7.4-1.35c-2.71,0.01-2.84,0.23-2.72,3.08c0.06,1.55,1.06,2.57,2.59,2.67c1.01,0.06,2.08,0.17,3.02-0.1    c2.33-0.69,4.69-0.82,7.08-0.77c0.29,0.01,0.59,0.02,0.86-0.05c1.14-0.32,2.25-0.32,3.42-0.04c1.1,0.26,2.15,0,2.99-1.16    c-0.56-0.92-1.03-1.71-1.57-2.59C205.44,180.1,204.87,179.99,204.31,180.06z M185.59,178.41c0.18-0.38-0.08-0.67-0.43-0.87    c-0.57-0.32-1.26-0.52-1.68-0.97c-1.37-1.44-3.03-1.89-4.93-1.82c-0.83,0.03-1.62-0.22-2.22-0.76c-1.32-1.18-2.97-1.8-4.48-2.65    c-1.03-0.59-2.08-0.94-3.31-0.69c-0.7,0.14-1.45,0.03-2.17,0.03v0.02c-0.58,0-1.16,0.02-1.74,0c-0.58-0.02-1.16-0.09-1.74-0.11    c-1.34-0.03-2.04,0.76-1.84,2.05c0.2,1.23,1.48,2.17,2.7,1.93c0.71-0.14,1.4-0.38,2.11-0.51c0.56-0.11,1.17-0.27,1.71-0.15    c1.12,0.24,2.28,0.51,3.3,1.01c1.82,0.89,3.56,1.93,5.31,2.97c0.76,0.45,1.51,0.84,2.42,0.85c2.1,0.03,4.21,0.09,6.31,0.1    C185.15,178.83,185.5,178.62,185.59,178.41z"></path>			<g>				<path class="st1" d="M335.38,217.01c-9.9,35.49-32.7,65.6-63.03,84.96c28.92,3.17,52.11-2.89,64-19.26     C348.07,266.58,346.88,243.09,335.38,217.01z"></path>				<path class="st1" d="M107.45,56.41c-24.76-1.1-44.47,5.3-55.11,19.95c-10.8,14.87-10.63,35.98-1.55,59.61     C60.2,103.43,80.48,75.52,107.45,56.41z"></path>			</g>		</g>		<g>			<g>				<g>					<polygon class="st3" points="80.93,135.21 84.16,135.21 84.16,181.17 80.93,181.17 80.93,192.25 103.6,192.25 103.6,181.17       100.38,181.17 100.38,135.21 103.6,135.21 103.6,124.12 80.93,124.12      "></polygon>					<path class="st3" d="M106.29,194.94H78.24v-16.46h3.23v-40.59h-3.23v-16.46h28.04v16.46h-3.23v40.59h3.23V194.94z       M83.62,189.57h17.29v-5.71h-3.23v-51.34h3.23v-5.71H83.62v5.71h3.23v51.34h-3.23V189.57z"></path>				</g>				<g>					<path class="st3" d="M239.74,145.8h68.01v-22.4h-75.89c-10.08,0-18.25,8.17-18.25,18.25v33.07c0,10.08,8.17,18.25,18.25,18.25      h75.89v-22.4h-68.01c-3.3,0-5.97-2.67-5.97-5.97v-12.83C233.77,148.48,236.45,145.8,239.74,145.8z"></path>					<path class="st3" d="M310.44,195.66h-78.57c-11.54,0-20.94-9.39-20.94-20.94v-33.07c0-11.54,9.39-20.93,20.94-20.93h78.57      v27.77h-70.69c-1.81,0-3.29,1.47-3.29,3.29v12.83c0,1.81,1.47,3.29,3.29,3.29h70.69V195.66z M231.86,126.09      c-8.58,0-15.56,6.98-15.56,15.56v33.07c0,8.58,6.98,15.56,15.56,15.56h73.2v-17.02h-65.32c-4.78,0-8.66-3.89-8.66-8.66v-12.83      c0-4.78,3.89-8.66,8.66-8.66h65.32v-17.02H231.86z"></path>				</g>				<g>					<path class="st3" d="M190.23,123.41h-75.89v22.4h7.12c-0.13,0.23-0.27,0.45-0.39,0.68c-3.99,7.46-4.16,16.49-0.52,24.09h-6.21      v22.4h75.89c10.08,0,18.25-8.17,18.25-18.25v-33.07C208.48,131.58,200.31,123.41,190.23,123.41z M188.33,164.6      c0,3.3-2.67,5.97-5.97,5.97h-39.62l15.05-11.52l-17.31-13.25h41.88c3.3,0,5.97,2.67,5.97,5.97V164.6z"></path>					<path class="st3" d="M190.23,195.66h-78.58v-27.77h4.96c-1.99-6.34-1.79-13.21,0.59-19.4h-5.55v-27.77h78.58      c11.54,0,20.94,9.39,20.94,20.93v33.07C211.17,186.27,201.78,195.66,190.23,195.66z M117.03,190.29h73.2      c8.58,0,15.56-6.98,15.56-15.56v-33.07c0-8.58-6.98-15.56-15.56-15.56h-73.2v17.02h9.06l-2.45,4.27      c-0.07,0.12-0.14,0.25-0.21,0.37c-3.58,6.69-3.75,14.79-0.46,21.66l1.84,3.85h-7.79V190.29z M182.35,173.26H134.8l18.56-14.21      l-20.82-15.94h49.81c4.78,0,8.66,3.89,8.66,8.66v12.83C191.01,169.38,187.13,173.26,182.35,173.26z M150.66,167.89h31.69      c1.81,0,3.29-1.47,3.29-3.29v-12.83c0-1.81-1.47-3.29-3.29-3.29h-33.95l13.8,10.56L150.66,167.89z"></path>				</g>			</g>			<g>				<polygon class="st0" points="80.93,135.21 84.16,135.21 84.16,181.17 80.93,181.17 80.93,192.25 103.6,192.25 103.6,181.17      100.38,181.17 100.38,135.21 103.6,135.21 103.6,124.12 80.93,124.12     "></polygon>				<path class="st0" d="M239.74,145.8h68.01v-22.4h-75.89c-10.08,0-18.25,8.17-18.25,18.25v33.07c0,10.08,8.17,18.25,18.25,18.25     h75.89v-22.4h-68.01c-3.3,0-5.97-2.67-5.97-5.97v-12.83C233.77,148.48,236.45,145.8,239.74,145.8z"></path>				<path class="st0" d="M190.23,123.41h-75.89v22.4h7.12c-0.13,0.23-0.27,0.45-0.39,0.68c-3.99,7.46-4.16,16.49-0.52,24.09h-6.21     v22.4h75.89c10.08,0,18.25-8.17,18.25-18.25v-33.07C208.48,131.58,200.31,123.41,190.23,123.41z M188.33,164.6     c0,3.3-2.67,5.97-5.97,5.97h-39.62l15.05-11.52l-17.31-13.25h41.88c3.3,0,5.97,2.67,5.97,5.97V164.6z"></path>			</g>			<g>				<path class="st3" d="M101.52,212.06c1.88,0,3.4,0.37,4.55,1.12c1.18,0.76,1.77,2.02,1.77,3.82c0,0.37-0.06,0.76-0.08,1.18     c-0.37-0.03-0.84-0.03-1.32-0.03c-1.26,0-2.78,0.08-3.26,0.2c0.03-0.14,0.06-0.45,0.06-0.65c0-0.81-0.22-1.71-1.46-1.71     c-0.81,0-1.38,0.34-1.63,1.04c-0.25,0.67-0.37,1.46-0.37,2.36c0,2.81,1.04,4.22,3.29,4.22c1.26,0,2.95-0.45,3.77-0.93     c0.22,0.45,0.9,1.94,1.43,2.73c-1.6,1.38-3.82,2.25-6.49,2.25c-4.58,0-8.04-2.5-8.04-7.81     C93.73,216.02,96.18,212.06,101.52,212.06z"></path>				<path class="st3" d="M117.21,227.66c-5.73,0-7.93-3.94-7.93-7.79c0-3.82,2.56-7.81,7.93-7.81c5.76,0,7.96,3.96,7.96,7.79     C125.16,223.72,122.63,227.66,117.21,227.66z M117.21,216.02c-1.69,0-1.94,1.94-1.94,3.74c0,2.36,0.59,3.82,1.91,3.82     c1.26,0,1.97-1.35,1.97-3.82C119.15,218.07,118.87,216.02,117.21,216.02z"></path>				<path class="st3" d="M127.08,218.3c0-1.74-0.2-4.22-0.28-5.23c1.04,0,2.81-0.42,4.58-0.84h1.8v1.85     c1.24-1.26,2.9-2.02,4.81-2.02c0.76,0,1.55,0.17,2.36,0.51c0.81,0.31,1.41,0.93,1.77,1.83c1.21-1.43,2.95-2.33,5.06-2.33     c2.02,0,4.5,0.93,4.5,4.33v8.18c0,1.21,0.08,2.3,0.17,2.9c-0.82,0-1.83,0-3.01,0.03c-1.18,0.03-2.28,0.06-3.32,0.14     c0.03-1.01,0.08-2.45,0.08-3.65v-6.1c0-1.21-0.67-1.49-1.43-1.49c-0.59,0-1.24,0.22-1.71,0.53v7.65c0,1.21,0.11,2.3,0.2,2.9     c-1.72,0-4.53,0.03-6.32,0.17c0-0.67,0.06-2.59,0.06-3.65v-6.1c0-1.21-0.65-1.49-1.41-1.49c-0.59,0-1.32,0.25-1.8,0.56v7.14     c0,1.38,0.09,2.7,0.17,3.37c-1.66,0-4.39,0.03-6.35,0.17l0.06-1.91c0.03-0.76,0.03-1.32,0.03-1.74V218.3z"></path>				<path class="st3" d="M154.4,218.33c0-2.56-0.2-4.67-0.31-5.26c1.1,0,2.84-0.39,4.61-0.84h1.32l0.17,0.93     c0.98-0.7,2.17-1.12,3.51-1.12c2,0,3.6,0.67,4.78,2.05c1.18,1.35,1.77,3.12,1.77,5.31c0,5.43-3.4,8.26-7.42,8.26     c-0.81,0-1.6-0.06-2.36-0.25v3.01c0,1.38,0.06,2.33,0.17,3.01c-1.66,0-4.44,0.08-6.32,0.23c0.03-1.04,0.08-2.31,0.08-3.35     V218.33z M164.1,220.07c0-2.22-0.51-3.91-2.11-3.91c-0.48,0-0.98,0.2-1.52,0.51v6.75c0.14,0.23,0.48,0.53,1.29,0.53     C163.2,223.95,164.1,222.29,164.1,220.07z"></path>				<path class="st3" d="M172.09,217.01c-0.03-2.22-0.28-3.99-0.31-4.53c1.15,0,3.18-0.06,5.4-0.25h1.04     c-0.03,3.06-0.03,6.24,0,9.39c0.03,1.15,0.62,1.66,1.41,1.66c0.59,0,1.15-0.28,1.63-0.65v-5.59c0-0.93-0.03-1.86-0.11-2.75     l-0.14-1.8c1.15,0,3.12-0.06,5.37-0.25h0.98v11.33c0,1.38,0.11,2.87,0.36,3.91c-0.81,0-1.8,0-2.95,0.03     c-1.12,0.03-2.17,0.06-3.12,0.14c-0.11-0.59-0.2-1.29-0.28-2.22c-1.21,1.32-2.84,2.25-4.75,2.25c-2.05,0-4.47-1.18-4.47-4.55     C172.15,220.38,172.12,218.38,172.09,217.01z"></path>				<path class="st3" d="M190.87,216.39l-1.91-0.65l0.06-1.52v-0.73c0.03-0.37,0.03-0.62,0-0.76l1.94-0.45l0.45-3.06     c1.04-0.08,2.08-0.34,3.88-0.76h1.69l-0.14,3.77h3.18c-0.11,0.87-0.17,1.6-0.17,2.3c0,0.67,0.03,1.24,0.11,1.88h-2.98     c0,2.02-0.03,4.64-0.03,4.69c0,1.49,0.73,2.25,1.77,2.25c0.36,0,0.79-0.08,1.26-0.28c0.09,1.12,0.25,2.11,0.7,3.46     c-1.15,0.7-2.59,1.12-3.96,1.12c-3.01,0-5.85-1.63-5.85-5.9V216.39z"></path>				<path class="st3" d="M209.99,218.47v-0.48c0-1.04-0.11-2-1.35-2c-1.1,0-1.41,0.9-1.29,1.77c-1.32,0-3.71,0.17-5.14,0.53     c-0.11-0.45-0.17-0.87-0.17-1.29c0-4.13,3.74-4.95,6.83-4.95c3.2,0,6.97,1.26,6.97,5.68v4.16c0,1.12,0.37,1.63,1.07,1.63h0.17     c-0.03,0.59,0.08,2,0.22,2.7c-0.81,0.9-2.11,1.43-3.34,1.43c-1.38,0-2.84-0.42-3.6-2c-0.93,1.12-2.64,2-4.53,2     c-2.44,0-4.33-1.41-4.33-4.02C201.5,221.78,202.96,219.14,209.99,218.47z M209.99,221.03c-1.04,0.14-2.76,0.56-2.76,1.63     c0,0.76,0.56,1.04,1.24,1.04c0.56,0,1.15-0.25,1.52-0.51V221.03z"></path>				<path class="st3" d="M218.06,220.24c0-5.43,3.4-8.18,7.45-8.18c0.76,0,1.55,0.03,2.33,0.25c0-2.7-0.25-4.83-0.28-5.54     c1.04-0.03,2.75-0.31,4.58-0.73h1.8c0,0.73,0,1.94-0.03,3.63v5.34v5.28v3.57c0,1.38,0.14,2.56,0.37,3.6     c-1.69,0-3.96,0.06-5.87,0.2l-0.25-1.21c-0.93,0.76-2.19,1.21-3.54,1.21C220.56,227.66,218.06,224.62,218.06,220.24z      M224.21,219.68c0,2.22,0.51,3.91,2.11,3.91c0.48,0,0.98-0.2,1.52-0.51v-6.75c-0.08-0.14-0.48-0.53-1.29-0.53     C225.11,215.8,224.21,217.46,224.21,219.68z"></path>				<path class="st3" d="M243.95,227.66c-5.73,0-7.93-3.94-7.93-7.79c0-3.82,2.56-7.81,7.93-7.81c5.76,0,7.96,3.96,7.96,7.79     C251.9,223.72,249.37,227.66,243.95,227.66z M243.95,216.02c-1.69,0-1.94,1.94-1.94,3.74c0,2.36,0.59,3.82,1.91,3.82     c1.26,0,1.97-1.35,1.97-3.82C245.89,218.07,245.61,216.02,243.95,216.02z"></path>				<path class="st3" d="M253.82,218.3c0-2.81-0.17-4.1-0.28-5.23c1.04,0,2.75-0.48,4.58-0.84h1.8v2.45     c0.79-1.55,1.91-2.61,3.51-2.61c0.76,0,1.43,0.22,1.8,0.48c-0.7,1.94-0.73,3.82-0.76,4.86c-0.59-0.14-1.24-0.25-1.77-0.25     c-1.15,0-2.14,0.37-2.78,1.41v5.54c0,1.38,0.09,2.7,0.17,3.37c-1.66,0-4.39,0.03-6.35,0.17c0.03-1.04,0.08-2.75,0.08-3.65V218.3     z"></path>				<path class="st3" d="M273.89,218.47v-0.48c0-1.04-0.11-2-1.35-2c-1.1,0-1.41,0.9-1.29,1.77c-1.32,0-3.71,0.17-5.14,0.53     c-0.11-0.45-0.17-0.87-0.17-1.29c0-4.13,3.74-4.95,6.83-4.95c3.2,0,6.97,1.26,6.97,5.68v4.16c0,1.12,0.37,1.63,1.07,1.63h0.17     c-0.03,0.59,0.08,2,0.22,2.7c-0.81,0.9-2.11,1.43-3.34,1.43c-1.38,0-2.84-0.42-3.6-2c-0.93,1.12-2.64,2-4.53,2     c-2.44,0-4.33-1.41-4.33-4.02C265.4,221.78,266.86,219.14,273.89,218.47z M273.89,221.03c-1.04,0.14-2.76,0.56-2.76,1.63     c0,0.76,0.56,1.04,1.24,1.04c0.56,0,1.15-0.25,1.52-0.51V221.03z"></path>				<path class="st3" d="M287.78,223.81c1.04,0,1.88-0.31,1.88-1.1c0-0.56-0.96-0.81-2.5-1.18c-3.34-0.81-4.81-2.28-4.81-4.75     c0-3.06,2.78-4.72,6.66-4.72c2.05,0,4.36,0.51,5.73,1.55c-0.56,1.04-0.96,2.25-1.1,3.06l-0.37,0.17     c-0.56-0.34-1.8-0.84-3.15-0.84c-1.01,0-1.88,0.2-1.88,0.9c0,0.45,0.65,0.73,1.91,1.07c2.81,0.7,4.78,2.14,4.78,4.95     c0,2.59-2.5,4.75-6.55,4.75c-1.15,0-2.31-0.17-3.51-0.48c-1.18-0.31-2.14-0.79-2.87-1.38c0.59-1.04,1.01-2.42,1.15-3.46     C283.79,222.88,285.93,223.81,287.78,223.81z"></path>			</g>		</g>	</g></g></svg>