<?xml version="1.0" encoding="UTF-8"?> <svg xmlns="http://www.w3.org/2000/svg" width="202" height="45.611" viewBox="0 0 202 45.611"><g transform="translate(-335.564 -440.649)"><g transform="translate(335.565 443.502)"><rect width="5.556" height="23.439" rx="2.778" transform="translate(15.16 19.32)" fill="#ed7231"></rect><path d="M353.5,443.875a17.931,17.931,0,0,0-9.105,33.382l2.926-5.13a12.024,12.024,0,1,1,12.377,0l3.2,4.937a17.922,17.922,0,0,0-9.4-33.191Z" transform="translate(-335.565 -443.875)" fill="#fff"></path><path d="M362.309,476.044a2.731,2.731,0,0,0-.8,3.768l.233.357a2.731,2.731,0,0,0,3.768.8l.372-.242-3.2-4.922Z" transform="translate(-338.513 -447.564)" fill="#fff"></path><path d="M348.861,476.056l-.391-.222-2.927,5.156.391.221a2.757,2.757,0,0,0,3.747-1.033l.213-.375A2.757,2.757,0,0,0,348.861,476.056Z" transform="translate(-336.718 -447.568)" fill="#fff"></path></g><g transform="translate(373.938 440.733)"><path d="M378.952,468.706V454.4h5.9v14.26a4.019,4.019,0,0,0,8.038,0V454.4h5.9v14.3c0,5.495-3.678,9.037-9.945,9.037C382.63,477.743,378.952,474.2,378.952,468.706Z" transform="translate(-378.952 -442.322)" fill="#fff"></path><path d="M403.954,465.729c0-6.63,5.132-11.943,11.308-11.943a9.422,9.422,0,0,1,7.448,3.134V454.33h5.9v22.888h-5.495l-.136-2.952a9.484,9.484,0,0,1-7.72,3.406C409.086,477.672,403.954,472.4,403.954,465.729Zm18.937,0a6.517,6.517,0,1,0-6.494,6.585A6.474,6.474,0,0,0,422.891,465.729Z" transform="translate(-381.841 -442.251)" fill="#fff"></path><path d="M436.761,440.744h5.858v34.967h-5.858Z" transform="translate(-385.632 -440.744)" fill="#fff"></path><path d="M447.747,445.536a3.452,3.452,0,1,1,3.451,3.405A3.44,3.44,0,0,1,447.747,445.536Zm.545,7.447h5.813v22.888h-5.813Z" transform="translate(-386.902 -440.904)" fill="#fff"></path><path d="M462,458.1h-4.5v-4.769H462v-8.219h5.9v8.219h4.45V458.1H467.9v18.12H462Z" transform="translate(-388.029 -441.248)" fill="#fff"></path><path d="M497.895,454.4l-13.352,33.333h-6.086l4.224-10.717L473.417,454.4h6.448l5.9,15.713,5.859-15.713Z" transform="translate(-389.868 -442.322)" fill="#fff"></path></g><g transform="translate(485.271 440.649)"><path d="M512.137,440.649v22.515a5.414,5.414,0,1,0,10.827,0V440.649h7.306v22.515a12.719,12.719,0,0,1-25.438,0V440.649Z" transform="translate(-504.831 -440.649)" fill="#ed7231"></path><path d="M536.312,440.649H549.5c6.661,0,11.258,4.6,11.258,11.257,0,6.7-4.555,11.3-11.258,11.3h-5.888v12.246h-7.3ZM549.5,455.9a3.975,3.975,0,0,0,0-7.949h-5.888V455.9Z" transform="translate(-508.469 -440.649)" fill="#ed7231"></path></g><g transform="translate(359.349 481.679)"><path d="M363.17,488.49a.562.562,0,0,0,.181.228,1.33,1.33,0,0,0,.364.188,4.327,4.327,0,0,0,.594.159,2.568,2.568,0,0,1,1.079.452.977.977,0,0,1,.348.8,1.173,1.173,0,0,1-.111.514,1.156,1.156,0,0,1-.307.394,1.394,1.394,0,0,1-.471.251,1.973,1.973,0,0,1-.6.088,2.619,2.619,0,0,1-.96-.17,2.713,2.713,0,0,1-.83-.525l.307-.363a2.553,2.553,0,0,0,.7.466,1.987,1.987,0,0,0,.807.154,1.125,1.125,0,0,0,.71-.207.656.656,0,0,0,.265-.546.724.724,0,0,0-.05-.279.562.562,0,0,0-.175-.223,1.257,1.257,0,0,0-.348-.181,4.419,4.419,0,0,0-.568-.157,4.533,4.533,0,0,1-.655-.187,1.612,1.612,0,0,1-.461-.257.919.919,0,0,1-.27-.351,1.177,1.177,0,0,1-.088-.476,1.08,1.08,0,0,1,.107-.482,1.11,1.11,0,0,1,.3-.379,1.463,1.463,0,0,1,.457-.251,1.762,1.762,0,0,1,.575-.09,2.437,2.437,0,0,1,.843.132,2.6,2.6,0,0,1,.7.4l-.289.381a2.128,2.128,0,0,0-.616-.363,1.872,1.872,0,0,0-.647-.112,1.227,1.227,0,0,0-.386.057.955.955,0,0,0-.294.15.626.626,0,0,0-.254.507A.757.757,0,0,0,363.17,488.49Z" transform="translate(-362.456 -487.042)" fill="#fff"></path><path d="M372.1,490.167a2.247,2.247,0,0,1-.455.722,2.179,2.179,0,0,1-.708.5,2.364,2.364,0,0,1-1.825,0,2.171,2.171,0,0,1-.7-.492,2.2,2.2,0,0,1-.454-.719,2.373,2.373,0,0,1-.159-.867,2.322,2.322,0,0,1,.163-.867,2.283,2.283,0,0,1,.456-.724,2.184,2.184,0,0,1,.708-.5,2.213,2.213,0,0,1,.914-.185,2.235,2.235,0,0,1,.91.181,2.158,2.158,0,0,1,1.158,1.212,2.371,2.371,0,0,1,.16.867A2.323,2.323,0,0,1,372.1,490.167Zm-.478-1.562a1.708,1.708,0,0,0-.907-.963,1.644,1.644,0,0,0-.692-.144,1.685,1.685,0,0,0-.693.141,1.628,1.628,0,0,0-.54.385,1.786,1.786,0,0,0-.354.573,1.908,1.908,0,0,0-.128.7,1.939,1.939,0,0,0,.128.707,1.721,1.721,0,0,0,.36.576,1.756,1.756,0,0,0,.547.388,1.655,1.655,0,0,0,.692.143,1.681,1.681,0,0,0,.691-.141,1.624,1.624,0,0,0,.542-.385,1.8,1.8,0,0,0,.353-.572,1.918,1.918,0,0,0,.129-.7A1.94,1.94,0,0,0,371.618,488.6Z" transform="translate(-363.073 -487.04)" fill="#fff"></path><path d="M374.732,487.125h.5v3.923h2.465v.457h-2.96Z" transform="translate(-363.875 -487.05)" fill="#fff"></path><path d="M383.249,489.634a2.46,2.46,0,0,1-.133.846,1.635,1.635,0,0,1-.372.607,1.532,1.532,0,0,1-.575.366,2.336,2.336,0,0,1-1.49,0,1.556,1.556,0,0,1-.575-.364,1.613,1.613,0,0,1-.372-.6,2.346,2.346,0,0,1-.131-.82v-2.547h.493v2.516a1.553,1.553,0,0,0,.354,1.095,1.461,1.461,0,0,0,1.949.018,1.486,1.486,0,0,0,.356-1.083v-2.547h.5Z" transform="translate(-364.437 -487.05)" fill="#fff"></path><path d="M389.132,491.117a2.181,2.181,0,0,1-.4.241,2.208,2.208,0,0,1-.456.157,2.448,2.448,0,0,1-.544.057A2.146,2.146,0,0,1,385.7,490.2a2.44,2.44,0,0,1,0-1.771,2.253,2.253,0,0,1,.459-.723,2.129,2.129,0,0,1,.7-.488,2.184,2.184,0,0,1,.889-.179,2.642,2.642,0,0,1,.54.05,2.263,2.263,0,0,1,.447.141,2.026,2.026,0,0,1,.382.219,3.278,3.278,0,0,1,.339.285l-.339.363a2.754,2.754,0,0,0-.6-.432,1.639,1.639,0,0,0-.773-.169,1.627,1.627,0,0,0-1.211.519,1.767,1.767,0,0,0-.356.572,2.04,2.04,0,0,0,0,1.424,1.755,1.755,0,0,0,.356.576,1.69,1.69,0,0,0,.538.385,1.616,1.616,0,0,0,.673.141,1.693,1.693,0,0,0,.777-.165,2.737,2.737,0,0,0,.639-.466l.325.319A3.086,3.086,0,0,1,389.132,491.117Z" transform="translate(-365.123 -487.04)" fill="#fff"></path><path d="M392.228,487.125v4.381h-.494v-4.381Z" transform="translate(-365.839 -487.05)" fill="#fff"></path><path d="M398.537,490.167a2.234,2.234,0,0,1-.456.722,2.169,2.169,0,0,1-.708.5,2.362,2.362,0,0,1-1.824,0,2.152,2.152,0,0,1-.7-.492,2.187,2.187,0,0,1-.455-.719,2.374,2.374,0,0,1-.159-.867,2.322,2.322,0,0,1,.163-.867,2.269,2.269,0,0,1,.457-.724,2.18,2.18,0,0,1,.707-.5,2.364,2.364,0,0,1,1.825,0,2.168,2.168,0,0,1,.7.492,2.211,2.211,0,0,1,.454.72,2.371,2.371,0,0,1,.159.867A2.323,2.323,0,0,1,398.537,490.167Zm-.479-1.562a1.749,1.749,0,0,0-.36-.576,1.729,1.729,0,0,0-.547-.387,1.641,1.641,0,0,0-.692-.144,1.68,1.68,0,0,0-.692.141,1.622,1.622,0,0,0-.541.385,1.8,1.8,0,0,0-.354.573,1.905,1.905,0,0,0-.128.7,1.937,1.937,0,0,0,.128.707,1.732,1.732,0,0,0,.36.576,1.756,1.756,0,0,0,.547.388,1.659,1.659,0,0,0,.693.143,1.681,1.681,0,0,0,.691-.141,1.63,1.63,0,0,0,.541-.385,1.8,1.8,0,0,0,.354-.572,1.934,1.934,0,0,0,.128-.7A1.957,1.957,0,0,0,398.059,488.6Z" transform="translate(-366.128 -487.04)" fill="#fff"></path><path d="M404.4,487.125h.482v4.381h-.394l-2.828-3.593v3.593h-.482v-4.381h.463l2.76,3.511Z" transform="translate(-366.93 -487.05)" fill="#fff"></path><path d="M410.636,487.576h-2.672v1.5h2.39v.45h-2.39v1.534h2.7v.45h-3.2v-4.381h3.166Z" transform="translate(-367.658 -487.05)" fill="#fff"></path><path d="M413.313,488.49a.57.57,0,0,0,.181.228,1.357,1.357,0,0,0,.364.188,4.365,4.365,0,0,0,.594.159,2.578,2.578,0,0,1,1.08.452.977.977,0,0,1,.348.8,1.155,1.155,0,0,1-.418.908,1.4,1.4,0,0,1-.471.251,1.977,1.977,0,0,1-.6.088,2.624,2.624,0,0,1-.961-.17,2.709,2.709,0,0,1-.829-.525l.306-.363a2.579,2.579,0,0,0,.7.466,1.992,1.992,0,0,0,.807.154,1.124,1.124,0,0,0,.709-.207.657.657,0,0,0,.266-.546.725.725,0,0,0-.05-.279.554.554,0,0,0-.175-.223,1.25,1.25,0,0,0-.348-.181,4.42,4.42,0,0,0-.568-.157,4.532,4.532,0,0,1-.655-.187,1.629,1.629,0,0,1-.462-.257.925.925,0,0,1-.269-.351,1.162,1.162,0,0,1-.088-.476,1.091,1.091,0,0,1,.106-.482,1.1,1.1,0,0,1,.3-.379,1.443,1.443,0,0,1,.457-.251,1.761,1.761,0,0,1,.575-.09,2.432,2.432,0,0,1,.842.132,2.584,2.584,0,0,1,.7.4l-.288.381a2.14,2.14,0,0,0-.616-.363,1.88,1.88,0,0,0-.648-.112,1.221,1.221,0,0,0-.385.057.955.955,0,0,0-.294.15.626.626,0,0,0-.254.507A.757.757,0,0,0,413.313,488.49Z" transform="translate(-368.251 -487.042)" fill="#fff"></path><path d="M426.981,487.576h-2.672v1.5h2.39v.45h-2.39v1.534h2.7v.45h-3.2v-4.381h3.167Z" transform="translate(-369.546 -487.05)" fill="#fff"></path><path d="M432.943,490.176a2.048,2.048,0,0,1-.479.7,2.26,2.26,0,0,1-.738.463,2.533,2.533,0,0,1-.942.169h-1.52v-4.381h1.52a2.588,2.588,0,0,1,.942.166,2.223,2.223,0,0,1,.738.46,2.053,2.053,0,0,1,.479.694,2.2,2.2,0,0,1,.168.864A2.23,2.23,0,0,1,432.943,490.176Zm-.472-1.537a1.62,1.62,0,0,0-.937-.922,2,2,0,0,0-.751-.135h-1.026v3.467h1.026a2.053,2.053,0,0,0,.751-.131,1.635,1.635,0,0,0,.573-.366,1.685,1.685,0,0,0,.364-.547,1.812,1.812,0,0,0,.127-.682A1.847,1.847,0,0,0,432.471,488.639Z" transform="translate(-370.176 -487.05)" fill="#fff"></path><path d="M439.074,489.634a2.46,2.46,0,0,1-.133.846,1.634,1.634,0,0,1-.372.607,1.532,1.532,0,0,1-.575.366,2.174,2.174,0,0,1-.748.122,2.151,2.151,0,0,1-.741-.122,1.56,1.56,0,0,1-.576-.364,1.614,1.614,0,0,1-.372-.6,2.366,2.366,0,0,1-.131-.82v-2.547h.493v2.516a1.553,1.553,0,0,0,.354,1.095,1.461,1.461,0,0,0,1.949.018,1.486,1.486,0,0,0,.356-1.083v-2.547h.5Z" transform="translate(-370.888 -487.05)" fill="#fff"></path><path d="M444.957,491.117a2.176,2.176,0,0,1-.4.241,2.219,2.219,0,0,1-.457.157,2.45,2.45,0,0,1-.544.057,2.153,2.153,0,0,1-1.572-.654,2.2,2.2,0,0,1-.459-.717,2.44,2.44,0,0,1,0-1.771,2.271,2.271,0,0,1,.459-.723,2.139,2.139,0,0,1,.7-.488,2.184,2.184,0,0,1,.889-.179,2.656,2.656,0,0,1,.541.05,2.273,2.273,0,0,1,.447.141,2,2,0,0,1,.382.219,3.283,3.283,0,0,1,.339.285l-.339.363a2.73,2.73,0,0,0-.6-.432,1.689,1.689,0,0,0-1.984.35,1.781,1.781,0,0,0-.356.572,2.041,2.041,0,0,0,0,1.424,1.768,1.768,0,0,0,.356.576,1.684,1.684,0,0,0,.539.385,1.609,1.609,0,0,0,.672.141,1.693,1.693,0,0,0,.777-.165,2.721,2.721,0,0,0,.638-.466l.325.319A3.073,3.073,0,0,1,444.957,491.117Z" transform="translate(-371.574 -487.04)" fill="#fff"></path><path d="M451.541,491.5h-.532l-.513-1.158h-2.384l-.52,1.158h-.506l2-4.412h.463Zm-2.233-3.83-1,2.234h2Z" transform="translate(-372.236 -487.046)" fill="#fff"></path><path d="M454.781,491.506h-.494v-3.924h-1.471v-.456h3.436v.456h-1.471Z" transform="translate(-372.898 -487.05)" fill="#fff"></path><path d="M459.007,487.125v4.381h-.494v-4.381Z" transform="translate(-373.556 -487.05)" fill="#fff"></path><path d="M464.479,487.125h.531l-1.883,4.412h-.439l-1.883-4.412h.55l1.558,3.773Z" transform="translate(-373.821 -487.05)" fill="#fff"></path><path d="M470.567,491.5h-.532l-.513-1.158h-2.384l-.519,1.158h-.507l2-4.412h.463Zm-2.233-3.83-1,2.234h2Z" transform="translate(-374.434 -487.046)" fill="#fff"></path><path d="M473.13,488.49a.562.562,0,0,0,.181.228,1.33,1.33,0,0,0,.364.188,4.33,4.33,0,0,0,.594.159,2.574,2.574,0,0,1,1.079.452.977.977,0,0,1,.348.8,1.172,1.172,0,0,1-.111.514,1.155,1.155,0,0,1-.307.394,1.394,1.394,0,0,1-.471.251,1.973,1.973,0,0,1-.6.088,2.619,2.619,0,0,1-.96-.17,2.712,2.712,0,0,1-.83-.525l.307-.363a2.553,2.553,0,0,0,.7.466,1.984,1.984,0,0,0,.807.154,1.127,1.127,0,0,0,.71-.207.656.656,0,0,0,.265-.546.724.724,0,0,0-.049-.279.561.561,0,0,0-.175-.223,1.257,1.257,0,0,0-.349-.181,4.414,4.414,0,0,0-.568-.157,4.536,4.536,0,0,1-.655-.187,1.613,1.613,0,0,1-.461-.257.918.918,0,0,1-.27-.351,1.176,1.176,0,0,1-.089-.476,1.079,1.079,0,0,1,.107-.482,1.11,1.11,0,0,1,.3-.379,1.463,1.463,0,0,1,.457-.251,1.761,1.761,0,0,1,.575-.09,2.438,2.438,0,0,1,.843.132,2.6,2.6,0,0,1,.7.4l-.289.381a2.127,2.127,0,0,0-.616-.363,1.872,1.872,0,0,0-.647-.112,1.227,1.227,0,0,0-.386.057.956.956,0,0,0-.294.15.626.626,0,0,0-.254.507A.757.757,0,0,0,473.13,488.49Z" transform="translate(-375.163 -487.042)" fill="#fff"></path></g></g></svg> 